<svg xmlns="http://www.w3.org/2000/svg" xml:space="preserve" width="512" height="512"><path fill="#e13c32" d="M0 0h512v512H0z"/><g fill="#f9efe5" fill-rule="evenodd" clip-rule="evenodd"><path d="m-982.6 48.8-.6 1c-11.9 15.3-6.1 35.3 10.4 43.7a36 36 0 0 0 25.4 2.6c2-.8 3-2.6 2.5-4.6s-2.2-3.1-4.4-2.7q-5.3 1.3-10.7.7a24 24 0 0 1-20.1-14c-4-8.7-1-18.9 7-25 6.6-5 14.2-6.3 22.2-4.8l3 .6q3.4.2 4.3-2.7c.5-1.8-.4-3.8-2.4-4.4q-3.2-1.1-6.5-1.5a35 35 0 0 0-20.3 3.7c-1 .5-1.7.7-2.9.2-5.2-2.1-10-1-14.5 2-4 2.6-6.9 6.2-9.5 10a72 72 0 0 0-8.7 18c-5 16-16.6 24.5-32.1 28.4a64 64 0 0 1-38.7-2.7q-13.4-5-23.7-15l-1.3-1.1c-1.6-1.1-3.5-1-4.8.4a4 4 0 0 0-.4 4.7q.5.8 1.3 1.4 3.8 3.5 8 6.8 1.8 1.3 1.8 3.6c.3 6-1.9 11.2-4.2 16.4q-5.8 12.1-16.3 20.8c-2.1 1.8-4.8 3-7.3 4.4q-2.7 1.3-4.4 3.7c-1.3 2.2-1.2 3.4.3 5.5 5 6.7 12 10 20.2 11.2 6 .8 12 0 18-1.4l1 2.4a166 166 0 0 0 30.2 53.9 142 142 0 0 0 98.8 51.2 134 134 0 0 0 73.8-16.7l3-2a169 169 0 0 1 63.7-27.2q8.3-1.7 16.7-1.3 3 .3 6 1c3.8.7 6.5 3.2 8.4 6.5q3.1 5.5 3.5 11.9a49 49 0 0 1-4 22.2 96 96 0 0 1-22 31.8 106.7 106.7 0 0 1-57.5 31.4q-13.8 2.8-28 3.4-14 .8-28-.2-29.5-2.2-58.1-9.9a371 371 0 0 1-115.7-53 270 270 0 0 1-44.6-38 167 167 0 0 1-29-41 94 94 0 0 1-9-28.7 63 63 0 0 1 1.3-24q.4-2.1 2.5-2.5a51 51 0 0 0 31.4-24.9c.6-1.7 0-3.5-1.6-4.3-1.5-1-3.3-.8-4.6.6q-.9 1.1-1.6 2.4a44 44 0 0 1-19.4 16.7c-12.5 5.3-24.5 4.6-35.3-4.3a35 35 0 0 1-12.2-22.5 48 48 0 0 1 7.5-34.2l.5-.8c2.2-3.3 1.7-5.4-1.6-7.6a127 127 0 0 1-44.3-49.5c-4.2-8.3-7.3-17-8.4-26.4a36 36 0 0 1 2.4-20.2 20 20 0 0 1 15.6-11.3c8-1.3 15.7.6 23.1 3.6a97 97 0 0 1 28.5 18.4 127 127 0 0 1 30 39.5q5.7 11.8 7.7 24.7.9 5.6 6.3 3.2a93 93 0 0 0 39.2-35q18-26.4 22.5-58c-.4-4.1 2-6.5 4.8-9q16.4-14.2 29.9-31 18.3-22.6 31-48.8a188 188 0 0 0 16.2-49.5c2.8-15.9 3-31.8-1.1-47.5a69 69 0 0 0-8.4-19.4l-1.3-2.2c1.6-1 3.3-1 5-1.4 11.2-2 22.1-1.5 32.8 2.5a22 22 0 0 1 7.3 4q0 .5-.2.8a64 64 0 0 0-1.8 47.1 89 89 0 0 0 18.8 32.4 115 115 0 0 0 62 36.5 94 94 0 0 0 53-2.3q1.9-.8 3 .8a42 42 0 0 1 10.7 23.1A50 50 0 0 1-844-85a74 74 0 0 1-45.8 25.7 73 73 0 0 1-24.6.1q-1.6-.3-2.7-1.4a32 32 0 0 0-9-6.6 18 18 0 0 1-8.1-8.6 36 36 0 0 1-3.2-11.7c-1-10.2.2-20.2 4.5-29.6 2.4-5.1 5.5-9.7 10.5-12.7 2-1.3 2.5-3.4 1.4-5.2-1-1.8-3.2-2.4-5.2-1.3a26 26 0 0 0-8.4 7.4c-5 6.4-7.8 13.7-9.4 21.6q-3.2 14.4.7 28.7 1.3 4 3 8.4l-1.8.4q-6 .7-10.8 3.7-3.2 2-2 4.8c.7 2 2.6 2.9 4.6 2.2q.8-.1 1.3-.6c10.7-6.1 23.3-1.6 29.3 8a24 24 0 0 1-3.2 29.9 20 20 0 0 1-15.5 5.8l-3-.1c-2 0-3.6 1.5-3.8 3.3s1 3.5 2.8 4q4.5 1 9.1.2 8.9-1.3 15.3-7.3l1.2-1q1 .5 1.6 1c9.4 7.3 18.3 15 26 24q8 8.8 12.8 19.4 3 6.7 2.8 14-.3 6.4-4.5 11.1c-4 4.5-9.2 7.2-14.7 9.2-7 2.5-14.4 3.6-21.9 4.2q-4.7.3-9.5.5a7 7 0 0 1-4.6-1.2q-4.6-3-10-3.3-4.6-.3-8 2.9c-3 3-2.6 9.6 2.6 11.5q3 1.1 6 .5 2.7-.4 5.2-1.4 3.9-1.5 8.1-1.4c10.2-.2 20.3-1 30.1-3.8a51 51 0 0 0 18-8.4q7.3-5.6 10-14.6l.5-1.3c7.1 2.2 12 7.7 12.5 14.2q-12.6 1.1-21.7 10.1-9 8.8-10 21.6-.5 0-1-.2c-6.2-3.5-13-4.3-20-3.8A78 78 0 0 0-942 98.9a50 50 0 0 0-14.2 12q-.9 1.4-2.4 1.1a54 54 0 0 1-18.7-4.8q-2-1-3.5-2.5c-4.3-4.3-9.5-7-15-9.1a59 59 0 0 0-15.2-3.4l.8-1.4 6-9q1.2-2.2 2-4.6c2.9-8.3 6.2-16.4 12-23.3a22 22 0 0 1 3.8-3.6q1.6-1 3.7-1.7 0 .1.2.2m1.2-89 1.6-2.5q7.8-12 8-26 .4-14.3-5.8-27.2a81 81 0 0 0-42.8-39.7l-2.1-.5q-2.6 0-3.6 2.3-.8 2.4 1 4.2 1 .7 2.1 1.1 12 5 21.7 13.6a65 65 0 0 1 20 31.3q3.3 10.8 1 22a43 43 0 0 1-23.9 30.6 60 60 0 0 1-35.3 5.4q-24.6-3.3-43-20.1-.8-1-2-1.7a3.7 3.7 0 0 0-5 5.2l1.6 1.8 1.9 2-1.2 1.6q-3.2 4.5-5.9 9.3a51 51 0 0 0-4 39c5 16.5 16 27.6 31.5 34.4q18 7.8 37.4 4.7A69 69 0 0 0-981 22.3l1.3-1.6.8.4c4.5 3.8 12.2 2.1 15.7-2.3 1.6-2 2.4-4.3 1.5-6.9-1.3-4-5.5-5.4-9-5.3l-2.6.3a51.2 51.2 0 0 0-8-47.1m-248.5 28.7-.2 1a32 32 0 0 0-1.6 18.9 60 60 0 0 0 20.8 35.5q2.9 2.4 3.5 6c1.9 9 5.9 16.8 13 22.8a5 5 0 0 1 2 4.6q-.4 10.4 3.1 20 .3 1 .9 2c1 1.6 2.8 2.2 4.5 1.6a4 4 0 0 0 2.4-4l-.6-2.1q-4.1-11.1-2.2-22.7c.9-6 2.9-11.4 7.2-15.8a6 6 0 0 0 1.5-6.2q-1.7-5.5-3.9-10.8-9.1-21.5-24.7-38.9A95 95 0 0 0-1226-18a43 43 0 0 0-14.8-6q-4.5-.9-9 .1c-2.5.7-3.7 2.5-3.3 4.6s2.3 3.2 4.8 2.8c6.8-1 12.6 1.6 18.3 5m207.6-36.8c2.2-.4 5.8-.7 9.4-1.6q6.7-1.4 11.5-6.5 6.2-6.7 3-15.3a19 19 0 0 0-6.8-8.6 44 44 0 0 0-39.7-7q-6 1.6-10 6.3-6 6.9-2.6 15.4 2.7 5.9 8.2 9.5a48 48 0 0 0 27 7.8m164-60c-.2-7.1-2.8-13-9.3-16.4a19 19 0 0 0-13.5-1.6c-13.8 3-25 15.8-26.1 30a17.7 17.7 0 0 0 21.4 19 32 32 0 0 0 20.2-12.3q6.7-8.1 7.2-18.7"/><path d="m-1122.6-161.7-3.5 6.8q-1.5-1-2.5-2c-11-9.8-19.5-21.4-26.6-34.1a170 170 0 0 1-21-76.3v-1q-.4-2.1-1.8-2-1.7.3-1.6 2v2.7a170 170 0 0 0 32.3 92.9q7.8 10.6 17.6 19.2l1.9 1.7c-9.2 14.7-20.7 26.9-35.7 36q-2.7-2.8-5-5.5a164 164 0 0 1-35.6-71 194 194 0 0 1-4.8-52q1.7-42.7 19.4-81.4.7-1.2 1-2.5c0-.5-.3-1.5-.8-1.7q-1-.2-1.9.4-.5.7-.9 1.7a222 222 0 0 0-18.3 62.3 207 207 0 0 0-1.7 40.2 183 183 0 0 0 20 75 158 158 0 0 0 23.6 34l1.7 2-.2.4q-8 4.7-17 5.2-2.2 0-4.5-.9a63 63 0 0 1-27.2-22.4 105 105 0 0 1-16-36.4q-4-16.6-4.7-33.7c-1-26.5 3-52.4 10.5-77.8a260 260 0 0 1 35-73.8 187 187 0 0 1 38.4-41.7q10.5-8 22-14 4.5-2 9.5-1.3 4.3.6 2.8 4.9-1 2.2-2.3 4.5a231 231 0 0 0-29.7 77.7 202 202 0 0 0-3.3 48.7c1 18 4.4 35.4 11.7 51.9a95 95 0 0 0 20.5 30.2c2.3 2.2 3 5 3.5 8 .7 5.2-1 14.5-3.8 20q-3.3-3.2-6.2-6.3a137 137 0 0 1-29.2-52.2q-5.5-17.8-7.1-36.4-1.6-19 .2-38a234 234 0 0 1 23.3-81l.5-1q.7-1.9-.7-2.5c-1-.4-1.7.3-2.2 1l-.7 1.6a241 241 0 0 0-21.1 64.2q-4.4 24.1-3.1 48.5a169 169 0 0 0 17.9 69.4q9.8 19.2 25.4 34.4zM-847.2-188l-6.4-12.9q2.2-3.5 4.2-7.1c6-10.8 9.9-22.4 13-34.2a275 275 0 0 0 8.6-80.8c-.5-11.7-1.9-23.3-5.3-34.6q-1.7-4.9-3.7-9.8l-.8-1.5q-.8-1.2-2-.8-1.5.8-.9 2.2l.3.7a82 82 0 0 1 7 23.8c1.9 10.7 2.4 21.5 2.4 32.3a272 272 0 0 1-10.4 73.6 130 130 0 0 1-12.6 30.3l-1.7 2.6-6.7-10q.1-.5.5-1c4-5.4 6.5-11.5 9-17.6a189 189 0 0 0 11.7-37.5q1.6-9.3 3-18.7.3-1.5.2-2.9.1-1.5-1.3-1.7-1.4.1-1.5 1.5l-.6 4.3c-2 12-4 23.8-7.7 35.3-3.4 10.6-7.3 21-12.6 30.8q-1.2 2.3-3 4.7-8.9-11.4-19.6-20.8l1.1-2.8A262 262 0 0 0-860.5-357a135 135 0 0 0-7.1-39q-1-2.7-2.1-5.3-.2-.9-.9-1.5c-.4-.3-1.2-.6-1.6-.4q-.8.6-1 1.7 0 .6.4 1.3c4 9 6.1 18.5 7.6 28.2q2.5 19 1.3 38.3a265 265 0 0 1-21.3 90l-1.6 3.6-11.4-8.4 3.8-6.2c4.1-6.8 6.9-14.1 9.6-21.5a235 235 0 0 0 13.7-86.4q-.7-20.5-6.9-40-.8-2.4-1.3-4.9a9 9 0 0 1-.3-3c.5-3.3 1.5-5.8 6.3-4.8A44 44 0 0 1-852-404c7.4 7 12.8 15.5 17 24.7 6 13.2 9.5 27.1 11.7 41.4a228 228 0 0 1 2.2 41.9 282 282 0 0 1-24.6 104.9zM-990.3 139.2l-1.9 4.7q-1.7 4-3.8 7.7a19 19 0 0 0-2.4 8.5c-.2 3.3 1.4 6 4 8q2.8 1.9 6 2 9.7.7 18.3-3.5c8.7-4 14.8-10.7 19.6-18.7l1.4-2.4 2.3 1q5.1 1.9 10.7 2.5 1.9.2 3.6 1a90 90 0 0 1 24.4 20.3q2.8 3.4 5.8 7.3a51 51 0 0 0-23.5 16.7l-2.2-2a71 71 0 0 0-20.4-12.4 30 30 0 0 0-21.8-.3 13 13 0 0 0-5.6 4c-2.7 3.2-2.8 9 1.7 12 3.2 2 5.6 4.9 8.2 8.2a27 27 0 0 0-17.6 0q-5.9-4.5-12.8-7a33 33 0 0 0-12.6-2.2q-2 0-3-1.4-6-7.8-15.3-11.2a5 5 0 0 1-3.5-3.8q-1.6-5.2-4.8-9.6a23 23 0 0 0-12.8-9.6q-1-.3-1.4-1.4a88 88 0 0 1-5.5-19.3q-.5-1.5.4-2.7 6.5-7.2 11-15.7l.5.1c3.8 6 9.7 8.7 16.4 9.8q5 .5 10 .5 2-.2 3.6 1 7 5.1 15.6 6.9zM-819.1-27.3l4.4 4.2a45 45 0 0 1 13.2 35.6c-.9 13-6.7 23.7-16.2 32.4a57 57 0 0 1-27 13.7l-1.5.1c-1.7-11.5-9.7-17.2-19.8-21-.9-9.2-4.9-17.3-10.1-25.2l4.9-.7q25.6-3.3 42.5-22.9 5.4-6.4 8.7-14.2z"/><path d="M-912.3-23.4q6.8-13.4 1.4-27.6 41.8 3 70.9-26.8 4.2 3.1 7.4 7.3c11 14 12 32.9 2.3 48.5a56 56 0 0 1-35.2 25q-7.4 1.9-15 1.7-1.5 0-2.7-1.2c-8.2-9.6-17.7-18-27.7-25.7zm38.7 17q19-.6 33.8-13 6.6-5.4 9.7-13.4c3.2-8.7 0-16.8-8.1-21q-6-3-12.7-3.1-21-.2-36.8 13.8a29 29 0 0 0-9.3 14.5 15 15 0 0 0 4.6 16.1 20 20 0 0 0 7 4.1 33 33 0 0 0 11.8 2M-1091 100.3q20.2 10.6 43.2 8.7l-1 3.3A62 62 0 0 1-1065 135a67 67 0 0 1-30.2 16.6 36 36 0 0 1-17.3.3q-4.5-1.1-8.2-4l-1.7-1.6a53 53 0 0 0 21.2-19.2 50 50 0 0 0 10-26.8M-1015.5-244l1 4q3 16 1.1 32c-2.4 23-10 44.3-20.6 64.7a242 242 0 0 1-37.5 53.1q-9.2 9.6-19 18.7l-1.4 1.2q-.3-.5-.4-1l-.4-12.8q-.2-1.5 1-2.6 15.9-14.2 28.2-31.9a288 288 0 0 0 39.7-78.6q5.3-15.8 7.2-32.2.6-6 .7-12v-2.6zM-977.4-250.7a66 66 0 0 0 11.7 37.3c7.4 11.7 17 21.6 27.8 30.2a159 159 0 0 0 62.7 31q10 2.3 20.3 3l1.8.2q-6.5 1.9-12.3 2.3a110 110 0 0 1-86-30.8 88 88 0 0 1-24.4-37.3 65 65 0 0 1-3.5-22.2c0-4 .8-8 1.3-11.9zM-824.6 59.4l.5 1c2.3 7.9 6.6 14.7 11.6 21q6 7.5 13.5 13.6c2 1.6 2 1.7.8 4-2.3 4.6-7.1 6.6-13 6.1-6.8-.6-13-3.2-18.7-6.8-4.1-2.5-7.9-5.5-11.8-8.2a6 6 0 0 1-2.2-3.3l-2.7-9.2q-.2-1-.7-1.7c-2.3-2.8-1.1-5.5 0-8.2q.5-.8 1.4-1.2a73 73 0 0 0 21-7zM-970 189c.6-1.6 1.8-2 3-2.5 5.6-2 11-1.5 16.4.7a59 59 0 0 1 23.7 17.2 52 52 0 0 1 9.6 18q.2.6.3 1.4a109 109 0 0 1-33 8.8c1.8-18.6-6-32.5-20-43.6M-980 114.5a77 77 0 0 0 32 5.4q.2.8.1 1.3a75 75 0 0 1-13.8 29.4q-7.5 9.2-19 11.5-3.7.6-7.5.3-2.1 0-2.3-2.2-.2-2.8 1.3-5 4.5-8 7.1-16.8a61 61 0 0 0 2.6-19.4q0-1.8-.4-4.5M-882.3 207.1c-9 5.3-18 10.3-27.8 14.2l-2.7-7.5q-1.5-3.5-3.4-6.9-1.9-3.3-4.2-7 2-2.4 4-4.8c5.2-5.1 11.2-9 18.4-10.8q3.3-1 5.2 1.6l1.6 2.1q4.8 7.5 8 15.8zM-1139.3 18.4l2.1-3.1q8.9-13.2 14.3-28.2 6.4-16.8 8.7-34.5.3-2.1 2-3.3l14-10.1 1.7-1.2-.7 5.4q-6 34.4-27.9 61.8-5.9 7.7-13.7 13.7zM-856.2 193.7l-23 11.6a76 76 0 0 0-12.3-22.7l.9-1.2q6.4-6.3 15-8.4l9.2-1.9q1.7-.3 2.7 1l.9 1.2a42 42 0 0 1 6.6 19.1zM-988.1 131a27 27 0 0 1-15.4-2.8q-3-1.4-5.5-3.3a6 6 0 0 1-2-2.8q-1-3.7-1.3-7.3-1-6.4.7-12.6l.7-2.3 4.3.6q7.7 1.5 14.6 5.2 2.6 1.4 3.4 4 2.4 7.8 1.3 15.7zM-917.8 116a61 61 0 0 1 4.4 16.2q.1 2.4-2 3.5-3 1.6-6 2.8a79 79 0 0 1-10.3 2.6q-7.2 1.4-14.1-1.9 1.6-4.8 3.1-9.6 1.3-4.9 2.2-9.7zM-823 157.8a30 30 0 0 1 14.7-18.1c3-1.7 6-2.4 9.4-1.3q4 1.3 1.6 4.8c-2.1 3.2-4.3 6.3-5.7 9.9a46 46 0 0 0-2.8 22.6q.9 6 2.2 12l.1 1.1-7.4-1.6a38 38 0 0 0-12-29.4M-957 233.4h-3a108 108 0 0 1-21.6-1.6c-1.5-.3-2-.9-2.3-2.3q-1.3-7.5-.4-15.2.2-1.6 1.8-2.4c7.7-4 14.6-1.7 21.2 2.5q2.7 1.5 3.1 4.9l1.3 11.4zM-833 187.4l-19.7 5q-.5-3.7-1.5-7.7-1.1-3.8-2.8-7.3-1.9-3.6-4-7.4.2-.4 1-1.2 7.4-6.2 17-5.4 2.9.1 4.3 2.6A60 60 0 0 1-833 186zM-987.3 230.5l-5.7-1.5q-9-3-17.5-7.2a4 4 0 0 1-2.4-3 33 33 0 0 1-.4-13.1c.8-3 1.4-3.5 4.5-3.5 7.3 0 13.6 2.7 19.4 6.7q.8.5 1.4 1.3 1.1.9.7 2.3c-1.2 5-.6 10 0 15l.2 2.1zM-890.5 106.8q1.2 2.8 2.1 5.7 1.3 5.1 2.2 10.3a3 3 0 0 1-1.3 3.2q-2.3 1.7-4.8 3-6.4 3-13.5 3.1-2.1-.1-4.1-.4l-4.3-16.5zM-883 123q-.8-9.6-4.6-17.6l18.7-11q.4.4.8 1.2 3.8 7 5 14.8l.3 3.6q.3 3-2 4.6A26 26 0 0 1-883 123M-1014.4 99.7a44 44 0 0 0-.1 22.3q-.5.3-.9.4c-6.5.8-12.7.4-18.5-3.2-4-2.5-5-6.6-3.4-10.8q.4-1.5 2-1.9 6-1.9 11.8-5c2.7-1.4 5.7-1.7 9.1-1.8M-1015.2 201.6c-2.7 5.3-1.6 10.8-1.1 16.6l-2.3-1.3a102 102 0 0 1-17.2-14.1 5 5 0 0 1-1.4-2.4q-.8-5.5 1.6-10.5c1.2-2.3 1.5-2.3 4-1.5q10.4 3.5 16.4 13.2M-859.8 110a55 55 0 0 0-6.3-17.7l12.7-12.4.5 1.3 3.8 17.2a12 12 0 0 1-.4 6.4 5 5 0 0 1-3.8 3.6zM-1041 197.2l-2.8-3.4q-6.1-7.9-11-16.6-1.1-1.7-.3-3.6c.7-1.6 1-3.3 2-4.8 1.6-2.6 3.2-2.8 5.9-1.2q5 3.2 7.5 8.6 1.7 3.8 2.9 7.8c.2.6.2 1.6-.1 2-2.6 3.2-3.3 7-4 11.2M-1113.2-54v-18.8q9-3.8 17-10.1.4 1 .5 1.8V-69a4 4 0 0 1-1.8 3.4l-13.8 10.3zM-837 162.8q2.5-2.7 5.5-1.2 2.9 1.4 5 3.5a29 29 0 0 1 8 20l-.3 1.5-10.5.5q-1.3-12.8-7.7-24.3M-1060.3 165.8q-3.3-7.6-5.5-15.2c-1.2-4-1.1-4 2.1-6.6l3.8-3.2 1.4-1c1 3.4 1.6 6.6 2.6 9.8l3.3 9.7c-3.4 1-5.6 3.4-7.7 6.5M-982.8 48.6l.3-.1-.1.3zM-986.5-34.2q4.8 6.4 6.5 13.6c3.5 13.2 1.1 25.5-6.2 37a58 58 0 0 1-28.3 22.7q-12.4 5.1-25.7 4.7a55 55 0 0 1-38.6-15.8 42 42 0 0 1-12.6-26.5 47 47 0 0 1 11.1-34.7l.6-.3 1.5 1a85 85 0 0 0 36 14.2c15.2 2.2 29.7.5 43.3-6.9a57 57 0 0 0 11-7.7zm-39.3 64.7 6.2-.6a45 45 0 0 0 19.2-7c4-2.7 7.6-6 9.7-10.6q4-9-2-17-4.5-5.6-11.4-8a47 47 0 0 0-41.4 4.2q-5.4 3.2-8.8 8.4c-4.3 6.6-4 14 1 20q2.2 2.7 5.3 4.7a41 41 0 0 0 22.2 5.9M-1199 19.2a26 26 0 0 0-9 17l-1.6-1.4a53 53 0 0 1-15-29.7q-.6-4.8.4-9.5.3-1 1-2.6c9.6 7.5 17.2 16.4 24.1 26.2"/><path d="M-852.7-53.5q6-.3 11.4 1.9c8.1 3.3 11.1 10.5 7.8 18.6A29 29 0 0 1-842-22a49 49 0 0 1-34.5 12 24 24 0 0 1-11-3c-5.7-3.3-8-9-6.2-15.4 1.4-5 4.5-9 8.2-12.4Q-874-51-859-53.1q1.5-.4 2.9-.4zm-20.8 39.4q15.8-.7 28-10.7 4.2-3.4 6.3-8.6c2-5.1.2-9.5-4.7-12a18 18 0 0 0-8.1-1.9q-16.8 0-29.5 10.8a21 21 0 0 0-6.2 8.2c-2 5-.3 9.8 4.7 12.2q4.5 2.1 9.5 2M-1025.5 27.1c-7.3-.1-13.6-1-19.2-4.3q-3.1-1.8-5.6-4.4a13 13 0 0 1-1.7-16q4-6.3 10.8-9.5 17.8-9.2 36.7-2.3 4.8 1.8 8.3 5.6a13 13 0 0 1 2.1 15.5 23 23 0 0 1-7.2 7.9q-8.5 5.8-18.7 7c-2.1.3-4.3.4-5.5.5m-1.2-3.9 5-.4c6.2-.9 12.1-2.7 17.4-6.3q4.2-2.6 6.4-7c1.9-4 1.2-8.1-1.9-11.3a19 19 0 0 0-8.4-4.7 38 38 0 0 0-16-1c-6.5 1-12.6 3-17.9 6.9a17 17 0 0 0-5.5 6.5q-2.7 5.6 1.2 10.3 2 2.2 4.6 3.7c4.5 2.6 9.5 3.1 15.1 3.3"/></g><g fill="#423a33" fill-rule="evenodd" clip-rule="evenodd"><path d="M-1289.5-2.2q0-3.4.3-6.8l.6-8.4q1.4-18.4 5.5-36.4 12-52.6 41.8-97.5l4.6-6.7q-6-19.2-7-39.2-1.7-27.4 3.3-54.4a276 276 0 0 1 50-115.7c13.8-18 29.8-33.5 49.4-45q6.5-4.2 14.1-5.8 4.5-1 8.8.2c6.8 2 9.8 8.2 7.2 14.7q-1.1 2.6-2.5 5a218 218 0 0 0-18.5 37.5q-12.6 33-14.1 68c-.5 13.6.2 27 3 40.3l1.8 8.2 1.6-.7q12.9-6.9 26.5-12.3 38-15.1 79-15.6 3.8 0 7.2-1.2a69 69 0 0 1 38.6-1.5c6.4 1.5 12.4 4 17.4 8.5q1 1 2.2.5 10.5-1.7 21-.5 17.5 2 33.3 9.5 5 2.4 10.1 5.2l2.3-3.7q5.3-10 9.2-20.6a226 226 0 0 0 13.6-60.3q1.5-16.5 0-33c-.9-8.6-2-17-4.5-25.3l-3.3-11.5c-1.7-6.5 2.2-15 9-16.4h4.6a48 48 0 0 1 22.3 9.9 74 74 0 0 1 19 22.9c7.6 13.4 12 28 14.9 43 3.9 20.7 4.6 41.5 3 62.4a292 292 0 0 1-7.3 47c-5 20.4-11.9 40-21.6 58.6q-.7 1.3-.2 2.7a89 89 0 0 1 3.8 18.8q.3 3 2.4 5.2c14.8 17 17.2 36 8.7 56.5-1.7 4.2-4.3 8.2-6.6 12.4a50 50 0 0 1 18 48.5l2.2 1.7a54 54 0 0 1 14.9 67.7 57 57 0 0 1-16.4 19.4q-2 1.5-1.3 3.7 1 3.2 2.4 6.2a79 79 0 0 0 19.7 24.6l4 3.7c1.4 1.3 2.5 3 2 4.9-1.5 7.4-6 13.3-14 15.3q-7 1.6-14-.2a65 65 0 0 1-21.4-10l-2.2-1.6-.5 3.7c-.8 5.6-3.4 9.8-9.1 11.7q-1 .4-1.6 1.4a41 41 0 0 0-5.1 31q1 5 4 9.1c3.7-.6 7.3-1.2 10.9-.6q1 0 1.9-.7a11 11 0 0 1 6-2.2q2.7 0 5.5.4.8-1.5 1.3-3.2 4.8-12 16.1-18a19 19 0 0 1 16.2-1.3 10 10 0 0 1 5 15.2l-2.8 4.2q-3 4.6-4.2 10a47 47 0 0 0-.2 18.7q1 6 3.6 11.6.9 2.5 3 4.1 3.4 2.7 5.6 6.5 5 9.1 2.3 19.2-.6 1.9.3 3.4a29 29 0 0 1 3.2 11.2q.1.4.4.8v1.4q-.3.3-.4.5v6.2q.1.3.4.5v1.4l-.7 3.6a69 69 0 0 1-6 18.2 104 104 0 0 1-21.3 29.3 119 119 0 0 1-53.4 31.7q-17.3 4.4-35.2 5.6h-28.3l-10.5-1a303 303 0 0 1-42.3-7q-51.2-12.1-97.4-37.7a308 308 0 0 1-74.5-56.3 173 173 0 0 1-32.2-45.4q-.7-1.5-2.4-2.2a173 173 0 0 1-55.4-41.2 193 193 0 0 1-41.5-75.4 229 229 0 0 1-8.5-47.6l-.2-1.9zm150.7 21.1q7.8-6 13.7-13.7 21.9-27.4 28-61.8l.6-5.4-1.7 1.2-14 10.1a4 4 0 0 0-2 3.3 153 153 0 0 1-23 62.7l-2 3.1-1.8 2 .3.3zm156 29.7q-2 .8-3.7 1.7a22 22 0 0 0-3.8 3.6c-5.8 6.9-9.1 15-12 23.3q-.8 2.4-2 4.6l-6 9-.8 1.4q7.9.7 15.2 3.4 8.4 2.9 15 9 1.5 1.6 3.5 2.6c5.9 3 12.2 4.1 18.7 4.8q1.5.3 2.4-1 6-7.4 14.2-12.1a78 78 0 0 1 35.6-11.1c7-.5 13.7.3 20 3.8l1 .2q.9-12.7 10-21.6t21.6-10c-.4-6.6-5.4-12.1-12.5-14.3l-.5 1.3q-2.7 9-10 14.6a51 51 0 0 1-18 8.4c-9.8 2.8-20 3.6-30 3.8q-4.4-.1-8.2 1.4a27 27 0 0 1-5.1 1.4q-3.1.6-6.1-.5c-5.2-1.9-5.6-8.5-2.5-11.5a10 10 0 0 1 7.8-2.9q5.5.2 10.1 3.3a7 7 0 0 0 4.6 1.2q4.8-.2 9.5-.5c7.5-.6 14.8-1.7 21.9-4.2 5.5-2 10.7-4.7 14.7-9.2q4.2-4.7 4.5-11 .3-7.5-2.8-14A77 77 0 0 0-889.2 8q-11.9-13.3-26-24-.8-.6-1.7-1.1l-1.2 1a28 28 0 0 1-24.4 7c-1.8-.4-3-2.1-2.8-3.9a4 4 0 0 1 3.7-3.3l3.1.1q9 .5 15.5-5.8a24 24 0 0 0 3.2-29.8c-6-9.7-18.6-14.2-29.3-8l-1.3.5c-2 .7-3.9-.2-4.6-2.2q-1.2-2.8 2-4.8 5-3 10.8-3.7l1.9-.4q-1.8-4.3-3.1-8.4a60 60 0 0 1-.7-28.7 51 51 0 0 1 9.4-21.6q3.4-4.6 8.4-7.4c2-1 4.2-.5 5.2 1.3 1.1 1.8.7 4-1.4 5.2-5 3-8.1 7.6-10.5 12.7a56 56 0 0 0-4.5 29.6q.5 6 3.2 11.7 2.6 5.7 8 8.6a32 32 0 0 1 9 6.6q1.2 1.1 2.8 1.4a73 73 0 0 0 24.5 0 74 74 0 0 0 46-25.8 50 50 0 0 0 12.4-38.8 42 42 0 0 0-10.6-23.1c-1-1-1.8-1.3-3.2-.8a94 94 0 0 1-53 2.3 115 115 0 0 1-62-36.5 89 89 0 0 1-18.7-32.4c-5-15.9-5-31.6 1.8-47l.2-.8a22 22 0 0 0-7.3-4.1 61 61 0 0 0-32.8-2.5q-2.6.3-5 1.4l1.3 2.3q5.6 9 8.4 19.3a110 110 0 0 1 1.1 47.5c-3 17.3-8.7 33.7-16.2 49.5a247 247 0 0 1-60.9 79.8c-2.8 2.5-5.2 4.9-4.8 9q-4.6 31.6-22.5 58a93 93 0 0 1-39.2 35q-5.4 2.4-6.3-3.2-2-13-7.8-24.7a127 127 0 0 0-30-39.5 97 97 0 0 0-28.4-18.4c-7.4-3-15-5-23.2-3.6a20 20 0 0 0-15.5 11.3 36 36 0 0 0-2.4 20.2c1.1 9.4 4.2 18 8.4 26.4q15.5 30.7 44.3 49.5c3.3 2.2 3.8 4.3 1.6 7.6l-.5.8a48 48 0 0 0-7.5 34.2A35 35 0 0 0-1210 116c10.8 8.9 22.8 9.6 35.3 4.3a44 44 0 0 0 19.4-16.7q.7-1.3 1.6-2.4 2-2.1 4.6-.6 2.4 1.5 1.6 4.3-.2 1-.8 1.7A51 51 0 0 1-1179 130q-2 .4-2.5 2.5-3 12-1.3 24 2.3 15 9 28.7a167 167 0 0 0 29 41q20.3 21.6 44.6 38 53.3 36.6 115.7 53 28.5 7.7 58 9.9a224 224 0 0 0 56.2-3.3 107 107 0 0 0 57.4-31.3c9.3-9.3 17-19.6 22-31.8a49 49 0 0 0 4-22.2q-.4-6.4-3.5-11.9c-2-3.3-4.6-5.8-8.5-6.6q-3-.5-5.9-.8-8.4-.6-16.7 1.2a169 169 0 0 0-63.7 27.2l-3 2q-9 5-18.5 8.4a134 134 0 0 1-75.5 5.5 142 142 0 0 1-78.6-48.4A166 166 0 0 1-1091 161l-1-2.4a51 51 0 0 1-18 1.4 29 29 0 0 1-20.2-11.2c-1.5-2-1.6-3.3-.3-5.5 1-1.8 2.7-2.7 4.4-3.7 2.5-1.4 5.2-2.6 7.3-4.4a61 61 0 0 0 16.3-20.8 35 35 0 0 0 4.2-16.4q0-2.2-1.8-3.6-4.2-3.2-8-6.8-.8-.6-1.3-1.4c-1-1.5-.8-3.4.4-4.7a4 4 0 0 1 4.8-.4l1.3 1a68 68 0 0 0 23.7 15.1 64 64 0 0 0 38.7 2.7c15.5-3.9 27-12.5 32.1-28.4a72 72 0 0 1 8.7-18c2.6-3.8 5.5-7.4 9.5-10 4.5-3 9.3-4.1 14.5-2q1.6.6 3-.2a35 35 0 0 1 26.7-2.2c2 .6 2.9 2.6 2.4 4.4s-2.1 3-4.2 2.7l-3-.6a28 28 0 0 0-22.3 4.9c-8 6-11 16.2-7 25 3.9 8.5 11 12.7 20 14q5.5.5 10.8-.7c2.2-.5 4 .7 4.4 2.6q.6 3.2-2.5 4.6l-1.6.4c-8.3 1.6-16.3.9-23.8-3-16.5-8.4-22.3-28.4-10.4-43.6l.6-1v-.4zm-139.8-210.3-2-1.4a130 130 0 0 1-25.4-34.4 169 169 0 0 1-18-69.4q-1.2-24.3 3.2-48.5 6-33.6 21-64.2l.8-1.5c.5-.8 1.1-1.5 2.2-1q1.5.5.7 2.4-.1.5-.5 1a234 234 0 0 0-23.3 81 207 207 0 0 0-.2 38q1.5 18.6 7.1 36.4c6 19.4 15.4 37 29.2 52.2l6.2 6.3a40 40 0 0 0 3.8-20c-.5-3-1.2-5.8-3.5-8a95 95 0 0 1-20.5-30.2c-7.3-16.5-10.8-34-11.7-51.9a202 202 0 0 1 3.3-48.7q7.8-41.6 29.7-77.7 1.4-2.2 2.3-4.5 1.5-4.2-2.8-5-5-.6-9.4 1.5-11.7 5.8-22 14c-15.1 11.8-27.6 25.9-38.4 41.6a260 260 0 0 0-35 73.8 239 239 0 0 0-10.6 77.8q.7 17.1 4.6 33.7a105 105 0 0 0 16.1 36.4c7.1 10 15.9 17.8 27.2 22.5q2.2.8 4.4.8c6.2-.2 11.8-2.3 17-5.2q.2 0 .3-.5l-1.7-1.9a158 158 0 0 1-23.6-34 183 183 0 0 1-20-75q-1.1-20.1 1.7-40.2 4.6-32.4 18.3-62.3.4-1 1-1.7c.4-.3 1.3-.6 1.8-.4s.9 1.2.8 1.7q-.3 1.3-1 2.5a215 215 0 0 0-19.4 81.3q-1.1 26.4 4.8 52.2a164 164 0 0 0 35.5 70.9l5.1 5.6c15-9.2 26.5-21.4 35.7-36.1l-1.9-1.7a120 120 0 0 1-17.6-19.2 170.5 170.5 0 0 1-32.2-93v-2.6q-.2-1.7 1.5-2 1.5-.1 1.7 2v1q.4 10.8 2.1 21.5 4.8 29 19 54.8c7 12.7 15.7 24.3 26.6 34q1 1.1 2.5 2.1zm275.4-26.4 1.5-3q8-17.4 13.4-35.7a282 282 0 0 0 11.2-69.2q.8-21-2.2-41.9a153 153 0 0 0-11.7-41.4 77 77 0 0 0-17-24.7q-9-8.7-21.3-11.4c-4.8-1-5.8 1.5-6.3 4.7q-.2 1.6.3 3.1l1.3 4.9q6.1 19.5 7 40 .8 17.4-1.5 34.7-3.2 26.6-12.3 51.7c-2.7 7.4-5.5 14.7-9.6 21.5l-3.8 6.2 11.4 8.4 1.6-3.5q6.3-14.3 10.7-29.3 8.9-29.7 10.6-60.8 1.2-19.2-1.3-38.3c-1.5-9.7-3.7-19.2-7.6-28.2q-.4-.7-.4-1.3.2-1 1-1.7c.3-.2 1.2.1 1.6.4q.7.6.9 1.5 1.2 2.6 2 5.3a135 135 0 0 1 7.2 39q1.3 29-4.2 57.3a262 262 0 0 1-18.3 59.2l-1.1 2.8q10.7 9.3 19.7 20.8l2.9-4.7c5.3-9.8 9.2-20.2 12.6-30.8 3.7-11.5 5.8-23.4 7.7-35.3l.6-4.3q0-1.4 1.5-1.5 1.5.3 1.3 1.7l-.1 2.9-3 18.7a189 189 0 0 1-11.7 37.5 84 84 0 0 1-9.1 17.6q-.4.5-.5 1l6.7 10 1.7-2.6c5.7-9.5 9.5-19.8 12.6-30.3a262 262 0 0 0 10.4-73.6q.2-16.2-2.3-32.3a82 82 0 0 0-7.4-24.5q-.6-1.5.8-2.2 1.5-.4 2 .8l.9 1.5c1.2 3.3 2.7 6.5 3.7 9.8 3.4 11.3 4.8 22.9 5.3 34.6a268 268 0 0 1-8.6 80.8c-3.1 11.8-7 23.4-13 34.2q-2 3.6-4.2 7.1zm-143.1 327.3-7.4-1q-8.5-1.8-15.6-7-1.6-1.1-3.6-1-5 .1-10-.4c-6.7-1-12.6-3.8-16.4-9.8h-.6q-4.4 8.4-10.9 15.6-.9 1.3-.4 2.7a88 88 0 0 0 5.5 19.3q.5 1 1.4 1.4c5.6 1.5 9.5 5 12.8 9.6q3.2 4.3 4.8 9.6a5 5 0 0 0 3.5 3.8q9.3 3.3 15.2 11.2 1.2 1.5 3 1.4c4.4-.2 8.6.8 12.7 2.2q7 2.5 12.8 7a27 27 0 0 1 17.6 0c-2.6-3.3-5-6.2-8.2-8.3-4.5-2.8-4.4-8.7-1.7-12a13 13 0 0 1 5.6-4 30 30 0 0 1 21.8.4 71 71 0 0 1 20.4 12.5l2.2 1.9a51 51 0 0 1 23.5-16.7l-5.8-7.3c-7-8-15-15-24.4-20.2q-1.6-1-3.6-1.1-5.6-.6-10.7-2.6l-2.3-.9-1.4 2.4c-4.8 8-11 14.7-19.6 18.7q-8.6 4.1-18.2 3.6-3.4-.2-6-2.1a9 9 0 0 1-4.1-8q.2-4.5 2.4-8.5 2.1-3.7 3.8-7.7zm171.2-166.5-1 2q-3.2 7.8-8.6 14.2a65 65 0 0 1-42.5 22.9l-5 .7c5.3 8 9.3 16 10.2 25.2 10 3.8 18 9.5 19.8 21l1.4-.1a57 57 0 0 0 27.1-13.7 47 47 0 0 0 16.2-32.4c1-13.8-3.7-25.6-13.2-35.6q-2-2-4.4-4.2m-93.2 3.9 1.4 1.2q15.2 11.4 27.7 25.7 1.1 1.4 2.7 1.2 7.6.1 15-1.6c15-3.9 27-11.8 35.2-25.1a42 42 0 0 0-9.7-55.8A86 86 0 0 1-911-51a33 33 0 0 1-1.4 27.6M-1091 100.3a50 50 0 0 1-10.1 26.8 53 53 0 0 1-21.2 19.2l1.7 1.7a21 21 0 0 0 8.2 3.9c5.8 1.4 11.6 1 17.3-.3a67 67 0 0 0 30.2-16.6q10.6-9.5 16-22.7l1.1-3.3a78 78 0 0 1-43.2-8.7m75.5-344.4-.4.1v2.6q-.1 6-.7 12-2 16.5-7.2 32.2a288 288 0 0 1-39.7 78.6 183 183 0 0 1-28.3 32q-1.1 1-1 2.5.4 6.4.5 12.9l.4.9 1.4-1.2c6.4-6.2 13-12.2 19-18.7q22.3-24 37.5-53.1a182 182 0 0 0 20.6-64.7q2-16-1.1-32zm38-6.6-.5 1.8c-.5 4-1.2 8-1.3 12q-.2 11.3 3.5 22a88 88 0 0 0 24.4 37.4 110 110 0 0 0 86 30.8q5.9-.4 12.3-2.3-1.3-.1-1.8-.2-10.2-.7-20.3-3-34.8-8.5-62.7-31a123 123 0 0 1-27.8-30.2 66 66 0 0 1-11.7-37.3m153 310-.4.1a73 73 0 0 1-21 7.1q-.9.3-1.3 1.2c-1.2 2.7-2.4 5.4-.1 8.2q.5.7.7 1.7l2.7 9.2q.5 2.1 2.2 3.3 5.8 4.3 11.8 8.2a43 43 0 0 0 18.7 6.8c5.9.5 10.7-1.5 13-6.1 1.1-2.3 1.1-2.4-.8-4q-7.6-6-13.5-13.5c-5-6.4-9.3-13.2-11.6-21.1q-.1-.6-.5-1M-970 189c14 11.1 21.8 25 20 43.6 11.7-1 22.5-4.4 33-8.8q0-.8-.3-1.4-3-10-9.6-18a59 59 0 0 0-23.7-17.2 23 23 0 0 0-16.4-.7c-1.2.4-2.4.9-3 2.5m-10-74.5q.5 2.7.5 4.5.3 10-2.6 19.4a79 79 0 0 1-7.1 16.8 8 8 0 0 0-1.3 5c.2 1.5.7 2.2 2.3 2.2 2.5 0 5.1.2 7.6-.3q11.5-2.3 18.9-11.5c7-8.6 11.1-18.7 13.8-29.4v-1.3a77 77 0 0 1-32-5.4m97.7 92.6q-.4-1.8-1-3.3a91 91 0 0 0-8-15.8l-1.5-2.1c-1.3-2-3-2.2-5.2-1.6a39 39 0 0 0-18.3 10.8q-2.2 2.3-4.1 4.7 2.3 3.8 4.2 7.1 2 3.4 3.4 7 1.4 3.5 2.7 7.4c9.8-3.9 18.8-8.9 27.8-14.2m26.1-13.4v-1.3c-.5-7-3-13.2-6.6-19l-.9-1.2q-.9-1.4-2.7-1.1l-9.1 1.9a32 32 0 0 0-15.1 8.4l-1 1.2a76 76 0 0 1 12.5 22.7c7.7-4 15.1-7.7 23-11.6M-988 131l.8-5.7q1-8-1.3-15.6a7 7 0 0 0-3.4-4.1 50 50 0 0 0-14.6-5.2l-4.3-.6-.7 2.3a34 34 0 0 0-.7 12.6q.3 3.6 1.3 7.3.5 1.6 2 2.8 2.6 2 5.5 3.3a27 27 0 0 0 15.4 2.9m70.3-15-22.7 3.8q-1 4.9-2.2 9.7-1.4 4.8-3.1 9.6 6.9 3.3 14.1 2 5.3-1 10.2-2.7 3.2-1.2 6-2.8 2.3-1 2.1-3.5-1-8.4-4.4-16.1m94.9 41.7q12.4 12.2 12 29.4l7.4 1.6-.1-1.1q-1.3-6-2.2-12-1.5-11.7 2.8-22.6c1.4-3.6 3.6-6.7 5.7-10q2.4-3.3-1.6-4.7-5-1.4-9.4 1.3a30 30 0 0 0-14.6 18m-134.2 75.6.2-2.8-1.3-11.3a6 6 0 0 0-3.1-4.9c-6.6-4.2-13.5-6.5-21.2-2.5q-1.7.8-1.8 2.4-1 7.6.4 15.2.2 2 2.3 2.3a108 108 0 0 0 21.6 1.6zm124-46q.3-.7.2-1.5a60 60 0 0 0-5.8-19.9c-1-1.8-2.4-2.4-4.3-2.6a23 23 0 0 0-17 5.4q-.8.8-1 1.2l4 7.4q1.5 3.6 2.8 7.3.9 4 1.5 7.7zm-154.2 43.1q.3-.5.2-.9l-.2-2.1c-.6-5-1.2-10 0-15q.4-1.4-.7-2.3-.7-.8-1.4-1.3c-5.8-4-12.1-6.7-19.4-6.7-3 0-3.7.5-4.5 3.5l-.2 1.1c-.7 4-.2 8 .6 12q.5 2 2.4 3 8.4 4.3 17.5 7.2zm96.8-123.7-23.6 8.4 4.2 16.5q2 .3 4.1.4 7-.1 13.5-3 2.5-1.4 4.8-3.1a3 3 0 0 0 1.3-3.2q-1-5.1-2.2-10.3-.9-3-2.1-5.7m7.5 16.2a26 26 0 0 0 18.1-4.4 5 5 0 0 0 2.1-4.6l-.3-3.6a48 48 0 0 0-5-14.8q-.4-.8-.8-1.2l-18.7 11q3.8 8 4.6 17.6m-131.4-23.3c-3.4.1-6.4.4-9.1 1.8q-5.6 3.1-11.9 5-1.4.5-2 1.9c-1.4 4.2-.5 8.3 3.5 10.8 5.8 3.6 12 4 18.5 3.2q.4-.1.9-.4a44 44 0 0 1 .1-22.3m-.8 101.9q-5.9-9.7-16.4-13.2c-2.5-.8-2.8-.8-4 1.5q-2.4 5-1.6 10.5.3 1.3 1.4 2.4 7.8 8 17.2 14 .8.7 2.3 1.4c-.5-5.8-1.6-11.3 1.1-16.6m155.4-91.5 6.5-1.7q2.9-.7 3.8-3.6 1.1-3 .4-6.4l-3.8-17.2q-.1-.7-.5-1.3l-12.7 12.4q4.5 8.2 6.3 17.8m-181.1 87.1c.7-4.2 1.4-8 4-11.2.3-.4.3-1.4 0-2q-1.1-4-2.8-7.8c-1.8-3.5-4-6.6-7.5-8.6-2.7-1.6-4.3-1.4-5.9 1.2-1 1.5-1.3 3.2-2 4.8q-.8 1.9.3 3.6 4.9 8.8 11 16.6zM-1113.2-54l2-1q6.7-5.3 13.7-10.4a4 4 0 0 0 1.8-3.4v-12.2q-.1-.7-.4-1.8c-5.5 4.1-11 7.7-17 10zM-837 162.8a64 64 0 0 1 7.7 24.3l10.5-.5.2-1.5q0-11.6-7.8-20a19 19 0 0 0-5-3.5q-3.1-1.5-5.6 1.2m-223.3 3c2.1-3.1 4.3-5.5 7.7-6.5l-3.3-9.7q-1.4-4.7-2.6-9.9l-1.4 1-3.8 3.3c-3.2 2.6-3.3 2.6-2 6.6q2 7.4 5.4 15.2"/><path d="M-981.4-40.2A51 51 0 0 1-973.3 7q1.4 0 2.6-.3c3.5-.1 7.7 1.3 9 5.3.9 2.6.1 4.9-1.5 7-3.5 4.3-11.2 6-15.7 2.2l-.8-.4-1.3 1.6a69 69 0 0 1-47.2 28.3q-19.5 3.1-37.4-4.7a54 54 0 0 1-31.5-34.3 51 51 0 0 1 4-39c1.7-3.3 4-6.3 6-9.4l1-1.7-1.8-1.9q-.8-.8-1.5-1.8a3.7 3.7 0 0 1 5-5.2l2 1.7a77 77 0 0 0 43 20c12.2 1.6 24 .4 35.2-5.3a43 43 0 0 0 24-30.6q2.1-11.1-1-22a65 65 0 0 0-20.1-31.3 77 77 0 0 0-21.7-13.6q-1-.4-2-1.1a3.5 3.5 0 0 1-1-4.2 3.5 3.5 0 0 1 3.5-2.3l2 .5c19 8.1 33.8 20.9 42.9 39.7a58 58 0 0 1 5.9 27.2 50 50 0 0 1-8 26zm-5 6-1.5 1.3a57 57 0 0 1-11 7.7 69 69 0 0 1-43.3 7 85 85 0 0 1-36-14.4l-1.5-.9-.6.3-.3.4c-8 10-12 21.3-10.8 34.3q1.6 15.5 12.6 26.5a55 55 0 0 0 38.6 15.8q13.4.4 25.7-4.7a59 59 0 0 0 28.3-22.8 45 45 0 0 0 6.2-36.9 39 39 0 0 0-6.5-13.6M-1230-11.5c-5.6-3.4-11.4-6-18.2-5-2.5.4-4.4-.7-4.8-2.8s.8-3.9 3.3-4.5q4.5-1 9-.2a43 43 0 0 1 14.8 6q12.2 7.6 21.7 18.4a137 137 0 0 1 24.7 38.9q2.2 5.3 4 10.8 1 3.5-1.6 6.2a28 28 0 0 0-7.2 15.8 45 45 0 0 0 2.8 24.8 3.8 3.8 0 0 1-7 2.4l-.8-2a53 53 0 0 1-3.1-20q.1-2.8-2-4.6c-7.1-6-11.1-13.8-13-22.8a10 10 0 0 0-3.5-6q-16.5-14-20.8-35.5c-1.2-6.4-1-12.7 1.6-18.8q0-.5.2-1.1m31 30.7c-7-9.8-14.6-18.7-24.3-26.2l-.9 2.6q-1 4.7-.3 9.5a53 53 0 0 0 15 29.7q.5.6 1.5 1.3a26 26 0 0 1 9-16.9"/><path d="M-1022.3-48.3a48 48 0 0 1-27-7.8 22 22 0 0 1-8.2-9.5A14 14 0 0 1-1055-81q4.2-4.7 10-6.3a44 44 0 0 1 39.8 7q4.5 3.3 6.7 8.6a14 14 0 0 1-2.9 15.3 22 22 0 0 1-11.5 6.5c-3.6.9-7.2 1.3-9.4 1.6M-858.4-108.3a31 31 0 0 1-7.2 18.6 32 32 0 0 1-20.2 12.4 17.7 17.7 0 0 1-21.4-19c1-14.2 12.3-27 26-30q7.2-1.7 13.6 1.6c6.5 3.5 9 9.3 9.2 16.4M-873.6-6.4q-6 0-11.8-2a20 20 0 0 1-7-4 15 15 0 0 1-4.6-16.2 29 29 0 0 1 9.3-14.5A53 53 0 0 1-850.9-57q6.6 0 12.7 3.1a16 16 0 0 1 8.2 21q-3.2 8-9.8 13.5a54 54 0 0 1-33.8 12.9m20.9-47.1h-3.4q-1.5 0-2.9.4-15.1 2.1-26.5 12.4a27 27 0 0 0-8.2 12.4c-1.8 6.4.5 12 6.2 15.4a24 24 0 0 0 11 3 49 49 0 0 0 34.5-12q5.7-4.5 8.5-11.1c3.3-8 .3-15.3-7.8-18.6q-5.5-2.1-11.4-2M-1025.8 30.5a41 41 0 0 1-22.2-5.9q-3-2-5.4-4.7c-5-6-5.2-13.4-.9-20q3.4-5.2 8.8-8.4 19.8-11.7 41.4-4.2 6.9 2.3 11.4 8 6 8 2 17-3.3 6.8-9.7 10.7a45 45 0 0 1-19.2 7zm.3-3.4c1.2 0 3.4-.2 5.5-.5q10.2-1.2 18.7-7 4.6-3 7.2-7.9a13 13 0 0 0-2.1-15.5 22 22 0 0 0-8.3-5.6 44 44 0 0 0-36.7 2.3 25 25 0 0 0-10.8 9.6 13 13 0 0 0 1.7 15.9q2.5 2.6 5.6 4.4a38 38 0 0 0 19.2 4.3"/><path d="M-873.5-14.1q-5 .1-9.5-2c-5-2.4-6.7-7.1-4.7-12.2q2-5 6.2-8.2A45 45 0 0 1-852-47.3q4.3 0 8.1 1.9c4.9 2.5 6.6 6.9 4.7 12a21 21 0 0 1-6.4 8.6 46 46 0 0 1-27.9 10.7M-1026.7 23.2c-5.6-.2-10.6-.7-15.1-3.3q-2.7-1.5-4.6-3.7-4-4.6-1.2-10.3 2-4 5.5-6.5c5.3-4 11.4-6 18-6.9q8-1.2 15.9 1 4.7 1.2 8.4 4.7c3.1 3.2 3.8 7.3 1.9 11.3q-2.2 4.4-6.4 7a40 40 0 0 1-17.4 6.3z"/></g><g fill-rule="evenodd" clip-rule="evenodd"><g fill="#f9efe5"><path d="m305 295-.5 1c-11.2 14.4-5.7 33.3 9.9 41.3a34 34 0 0 0 24 2.5c2-.7 3-2.5 2.5-4.3-.4-1.9-2.1-3-4.2-2.6q-5.1 1.1-10.2.6a23 23 0 0 1-19-13.2c-3.8-8.3-1-18 6.6-23.7a26 26 0 0 1 21.1-4.6l3 .5c2 .3 3.4-.8 4-2.5.4-1.7-.5-3.6-2.3-4.2q-3-1-6.2-1.4-10.2-1.2-19.2 3.5-1.3.9-2.8.2c-5-2-9.5-1-13.8 1.9a33 33 0 0 0-9 9.6q-5.3 8-8.2 17c-4.8 15-15.8 23.2-30.5 27a61 61 0 0 1-36.7-2.7 64 64 0 0 1-22.5-14.2q-.6-.6-1.2-1c-1.5-1.1-3.3-1-4.6.4a4 4 0 0 0-.3 4.4q.4.8 1.2 1.3 3.7 3.4 7.6 6.5 1.7 1.4 1.7 3.4a33 33 0 0 1-4 15.5A57 57 0 0 1 176 377c-2 1.7-4.7 2.8-7 4.2a10 10 0 0 0-4.1 3.4c-1.3 2.1-1.2 3.3.2 5.3a28 28 0 0 0 19.2 10.6c5.7.8 11.3 0 17.1-1.3l.9 2.2q9.6 28.3 28.7 51.2a134 134 0 0 0 93.6 48.6 127 127 0 0 0 70-16q1.5-.8 2.9-1.8a161 161 0 0 1 60.4-25.8q8-1.6 15.9-1.2 2.8.2 5.6.9 5.4 1.2 8 6.2 3 5.1 3.3 11.2.6 11-3.8 21.1a91 91 0 0 1-20.8 30.1q-15 15-34.3 23.7-9.7 4-20.2 6a212.1 212.1 0 0 1-53.2 3 292 292 0 0 1-55-9.1 352 352 0 0 1-109.8-50.3 256 256 0 0 1-42.3-36.1 159 159 0 0 1-27.5-38.9 90 90 0 0 1-8.6-27.2q-1.5-11.6 1.3-22.8.4-1.9 2.3-2.4a48 48 0 0 0 29.9-23.5q.6-2.7-1.6-4.2a3.3 3.3 0 0 0-4.3.6l-1.6 2.3a42 42 0 0 1-18.3 15.8c-12 5-23.3 4.4-33.6-4a33 33 0 0 1-11.5-21.4 46 46 0 0 1 7-32.4l.6-.7c2-3.2 1.6-5.2-1.6-7.3a120 120 0 0 1-42-47q-6.2-11.6-8-25c-.7-6.5-.6-13 2.3-19.1q4.5-9.3 14.8-10.8a41 41 0 0 1 22 3.5c10 4 18.9 10.2 27 17.4q17.8 16 28.4 37.5a78 78 0 0 1 7.3 23.4q.9 5.3 6 3c16-7 27.7-18.9 37.2-33a132 132 0 0 0 21.3-55.2c-.3-3.8 1.9-6.1 4.6-8.5q15.5-13.4 28.3-29.5a235 235 0 0 0 29.4-46.2c7.2-15 12.6-30.5 15.4-47 2.6-15 3-30-1-45a66 66 0 0 0-8-18.3L267.5-5c1.6-1 3.2-1 4.8-1.4 10.6-1.9 21-1.4 31.2 2.4q3.7 1.2 6.8 3.8l-.1.8a61 61 0 0 0-1.7 44.6A85 85 0 0 0 326.2 76a110 110 0 0 0 58.9 34.6c16.9 3.9 33.7 3.6 50.2-2.2 1.3-.4 2-.2 3 .8a40 40 0 0 1 10 22c1.8 14-3 26.1-11.8 36.8a71 71 0 0 1-43.5 24.3 69 69 0 0 1-23.3.1q-1.4-.2-2.6-1.3a30 30 0 0 0-8.5-6.3q-5.2-2.8-7.7-8.1a34 34 0 0 1-3-11.2c-1-9.7.1-19 4.3-28 2.2-4.9 5.2-9.2 10-12 1.9-1.3 2.3-3.3 1.3-5s-3-2.2-5-1.2a24 24 0 0 0-8 7c-4.7 6-7.3 13-8.9 20.5-1.8 9-1.9 18.2.7 27.2q1.2 3.8 3 8-1 .2-1.9.3-5.5.7-10.2 3.6-3 1.9-2 4.5a3.4 3.4 0 0 0 4.5 2.1l1.2-.5c10.1-5.9 22-1.6 27.8 7.6 5.6 9.1 4.4 21-3 28.3q-6.2 6-14.7 5.5-1.5-.1-3-.1c-1.9 0-3.3 1.4-3.5 3.2-.2 1.6 1 3.2 2.7 3.7q4.2 1 8.6.2a27 27 0 0 0 14.5-7l1.2-.9 1.5 1a168 168 0 0 1 24.7 22.8 73 73 0 0 1 12 18.4 29 29 0 0 1 2.7 13.2q-.3 6-4.3 10.6a32 32 0 0 1-14 8.6 81 81 0 0 1-20.6 4q-4.5.3-9.1.5-2.4.2-4.3-1.1-4.4-3-9.6-3.1-4.3-.3-7.5 2.7c-2.9 2.8-2.5 9.1 2.4 10.9q2.9 1.1 5.8.5 2.5-.4 4.8-1.3 3.7-1.4 7.8-1.4c9.6-.1 19.2-1 28.5-3.5 6.2-1.8 12-4.1 17-8q7-5.4 9.5-13.9l.5-1.2c6.8 2 11.5 7.3 11.9 13.5q-12 1-20.6 9.5c-5.6 5.7-9 12.4-9.4 20.5q-.6 0-1-.2a34 34 0 0 0-19-3.6 74 74 0 0 0-33.7 10.6q-7.7 4.4-13.4 11.4-1 1.2-2.3 1a51 51 0 0 1-17.8-4.6 13 13 0 0 1-3.2-2.4q-6.2-5.8-14.3-8.6a56 56 0 0 0-14.4-3.2l.8-1.4 5.6-8.5q1.3-2 1.9-4.3c2.8-8 6-15.6 11.4-22.1q1.6-2 3.7-3.4 1.6-1 3.4-1.6zm1.3-84.5 1.5-2.4a47 47 0 0 0 7.6-24.6 55 55 0 0 0-5.6-25.8 77 77 0 0 0-40.6-37.7q-1-.4-2-.5-2.3 0-3.3 2.3a3 3 0 0 0 1 3.9q.8.7 2 1.1a73 73 0 0 1 20.5 12.9c9 8.1 15.7 17.8 19 29.6q3 10.4 1 21a41 41 0 0 1-22.7 29 57 57 0 0 1-33.5 5 73 73 0 0 1-40.8-19q-.9-1-1.9-1.6a3.5 3.5 0 0 0-4.7 5l1.5 1.7 1.7 1.7-1 1.7q-3 4.3-5.7 8.8a48 48 0 0 0-3.8 37 51 51 0 0 0 30 32.6q17 7.4 35.3 4.5a66 66 0 0 0 44.8-26.9l1.3-1.5.7.4c4.3 3.5 11.6 2 15-2.2q2.4-2.8 1.4-6.6c-1.2-3.8-5.3-5.1-8.6-5l-2.5.3a48.5 48.5 0 0 0-7.7-44.7M70.6 237.7l-.3 1a30 30 0 0 0-1.4 18 57 57 0 0 0 19.7 33.6q2.8 2.3 3.4 5.7a37 37 0 0 0 12.1 21.6q2.2 1.8 2 4.4-.4 9.7 3 19 .3 1 .8 1.8 1.7 2.5 4.3 1.5a3.5 3.5 0 0 0 2.2-3.8q-.1-1-.5-2a43 43 0 0 1-2.1-21.4c.9-5.7 2.7-10.9 6.9-15a5 5 0 0 0 1.4-6q-1.7-5.2-3.7-10.2A130 130 0 0 0 95 249a90 90 0 0 0-20.5-17.5q-6.6-4.2-14-5.7-4.5-.8-8.6.1-3.6 1.1-3.1 4.3.8 3 4.5 2.7c6.5-1 12 1.5 17.4 4.7m197-34.9c2-.3 5.4-.7 8.8-1.5q6.4-1.4 11-6.1a13 13 0 0 0 2.7-14.5q-2-5-6.4-8.2A42 42 0 0 0 246 166q-5.6 1.5-9.5 5.9a13 13 0 0 0-2.4 14.6q2.6 5.6 7.7 9c7.3 5.1 15.5 7 25.7 7.4m155.4-57c-.2-6.6-2.6-12.1-8.8-15.5q-6.1-3-12.8-1.4c-13 2.8-23.8 15-24.8 28.4a16.8 16.8 0 0 0 20.3 18c8-1.3 14.2-5.5 19.2-11.7q6.3-7.7 6.9-17.7"/><path d="m172.4 95.3-3.4 6.5-2.4-2a123 123 0 0 1-25.2-32.3 161 161 0 0 1-20-72.4v-.9q-.1-2-1.6-2-1.6.4-1.5 2v2.5A162 162 0 0 0 149 84.8a114 114 0 0 0 16.7 18.3l1.8 1.6c-8.7 14-19.6 25.5-33.8 34.2l-4.9-5.3A155 155 0 0 1 95 66.3 184 184 0 0 1 90.5 17q1.6-40.5 18.4-77.2.6-1 1-2.3c0-.5-.4-1.4-.8-1.6q-.9-.2-1.8.4-.5.6-.9 1.5a211 211 0 0 0-19 97.3c1.4 25 7.4 48.8 19 71.1q9 17.6 22.4 32.2l1.6 1.9q0 .3-.2.4c-5 2.8-10.3 4.8-16.1 5q-2.2 0-4.2-.9A59 59 0 0 1 84 123.5a100 100 0 0 1-15.3-34.6Q65 73.2 64.4 57c-1-25.2 2.8-49.7 10-73.8q11.1-37.6 33.2-70a178 178 0 0 1 36.4-39.5 124 124 0 0 1 21-13.3q4.2-2 8.8-1.3 4.2.6 2.7 4.6-.9 2.3-2.2 4.3a219 219 0 0 0-28.1 73.7q-4.5 23-3.2 46.2c1 17 4.2 33.6 11.1 49.2a90 90 0 0 0 19.5 28.6c2.2 2.1 2.8 4.8 3.2 7.6.8 5-.8 13.8-3.5 19l-6-6c-13-14.3-21.8-31-27.6-49.4A163 163 0 0 1 133 2.3q-1.6-18 .2-36 4.1-40.4 22-76.8.5-.5.6-1 .6-1.7-.7-2.3c-1-.4-1.6.2-2 1l-.8 1.4a228 228 0 0 0-20 61 202 202 0 0 0-3 46c1.3 23 6.4 45 17 65.7q9.4 18.3 24.2 32.6.8.7 1.9 1.4M433.5 70.3q-3-6.3-6-12.2l4-6.7a143 143 0 0 0 12.3-32.5 261 261 0 0 0 8.1-76.6c-.4-11.1-1.7-22.1-5-32.8q-1.6-4.7-3.5-9.3l-.8-1.4q-.5-1.2-2-.8-1.2.7-.7 2.1l.3.6a78 78 0 0 1 6.7 22.6q2.4 15.3 2.2 30.6a258 258 0 0 1-9.9 69.9c-3 10-6.5 19.7-12 28.7l-1.5 2.5-6.4-9.5.5-1a80 80 0 0 0 8.6-16.7q7.4-17.2 11-35.5l3-17.8.1-2.7q0-1.3-1.2-1.6-1.4.1-1.5 1.4l-.5 4a226 226 0 0 1-7.4 33.6c-3.2 10-6.9 19.9-12 29.2q-1.1 2.1-2.7 4.4a142 142 0 0 0-18.7-19.7l1.1-2.6A249 249 0 0 0 421-90c-.6-12.6-2.4-25-6.7-37l-2-5.1q-.2-.8-.8-1.4c-.4-.3-1.2-.6-1.6-.3s-.8 1-1 1.5q.1.6.5 1.3c3.7 8.5 5.8 17.5 7.1 26.7q2.5 18 1.3 36.3a251 251 0 0 1-20.2 85.5l-1.5 3.3-10.8-8 3.6-5.9c3.9-6.4 6.5-13.3 9-20.3a223 223 0 0 0 13-82 145 145 0 0 0-7.7-42.5q-.4-1.5-.3-3c.5-3 1.4-5.4 6-4.5a41 41 0 0 1 20.2 10.8q10.3 10.2 16.1 23.5c5.8 12.5 9 25.7 11 39.3q2.9 19.7 2.2 39.7A267 267 0 0 1 435 67.3zM297.8 380.6q-.8 2.4-1.7 4.5-1.7 3.8-3.6 7.4a18 18 0 0 0-2.4 8 9 9 0 0 0 3.9 7.6q2.6 1.8 5.7 2 9 .5 17.2-3.4a43 43 0 0 0 20-20l2.2.8a39 39 0 0 0 10.1 2.5q1.9.1 3.4 1a85 85 0 0 1 23.2 19.2l5.5 6.9c-9.3 3-16.2 8.7-22.3 15.8l-2.1-1.8q-8.7-7.5-19.3-11.8a29 29 0 0 0-20.7-.3q-3.2 1.2-5.3 3.7c-2.6 3.1-2.7 8.7 1.6 11.4 3 2 5.3 4.7 7.8 7.8a25 25 0 0 0-16.7 0q-5.6-4.2-12.1-6.6a31 31 0 0 0-12-2q-1.8 0-3-1.4a32 32 0 0 0-14.4-10.6c-2-.7-2.8-1.8-3.3-3.6q-1.5-5-4.5-9.2a22 22 0 0 0-12.2-9q-.8-.4-1.3-1.3-3.6-8.9-5.2-18.4-.5-1.3.4-2.6 6-6.7 10.3-14.8l.5.1c3.7 5.7 9.2 8.2 15.6 9.2q4.7.6 9.5.5 1.9-.1 3.4 1c4.5 3 9.4 5.5 14.8 6.5zM460.2 222.7q2.3 2.1 4.2 4a43 43 0 0 1 12.5 33.8 45 45 0 0 1-15.4 30.8 54 54 0 0 1-25.7 12.9q-.4 0-1.3.2c-1.6-11-9.2-16.4-18.8-20a53 53 0 0 0-9.6-24l4.6-.6a62 62 0 0 0 40.4-21.6q5-6.2 8.2-13.6z"/><path d="M371.8 226.4a31 31 0 0 0 1.4-26 82 82 0 0 0 67.1-25.5q4.1 3 7 6.9a40 40 0 0 1 2.3 46 53 53 0 0 1-33.4 23.7 54 54 0 0 1-14.2 1.6q-1.5 0-2.6-1.1-11.8-13.5-26.3-24.4zm36.7 16.1a51 51 0 0 0 32-12.2q6.3-5.2 9.3-12.7c3-8.3 0-16-7.7-20q-5.8-3-12-3-20 0-35 13.2a28 28 0 0 0-8.8 13.7q-2.2 9 4.4 15.3 3 2.6 6.6 4 5.5 1.8 11.2 1.7M202.3 343.8c13 6.7 26.4 9.5 41 8.3l-1 3a59 59 0 0 1-15.3 21.6 64 64 0 0 1-28.6 15.7c-5.4 1.3-10.9 1.7-16.4.3q-4.2-1-7.7-3.7l-1.7-1.6a50 50 0 0 0 20.1-18.2c5.3-7.5 9-15.7 9.6-25.4M273.9 17.2l1 3.8q2.8 15 1 30.4c-2.3 21.8-9.5 42-19.6 61.3a229 229 0 0 1-35.5 50.4c-5.7 6.2-12 11.8-18 17.7l-1.4 1.1q-.2-.4-.3-.8l-.4-12.3c0-1 0-1.6.9-2.3q15.2-13.7 26.8-30.3Q253 101.8 266 61.6q5-15 7-30.6.4-5.6.6-11.3v-2.5zM310 10.9c-.3 13 4.4 24.6 11.2 35.3 7 11.2 16 20.5 26.3 28.7q26.4 21.2 59.5 29.4a127 127 0 0 0 19.3 2.9l1.6.2a57 57 0 0 1-11.6 2.1 104 104 0 0 1-81.6-29.2A84 84 0 0 1 311.6 45a61 61 0 0 1-3.4-21q.4-5.7 1.3-11.3.1-.8.5-1.7M455 305l.5 1c2 7.4 6.2 13.8 11 20a82 82 0 0 0 12.8 12.8c1.8 1.5 1.8 1.6.7 3.7-2.1 4.4-6.7 6.3-12.3 5.8-6.5-.5-12.3-3-17.8-6.4q-5.6-3.7-11.1-7.8a5 5 0 0 1-2.1-3l-2.6-8.8q-.2-1-.7-1.7c-2.1-2.6-1-5.2.1-7.8.2-.4.8-1 1.3-1a69 69 0 0 0 19.9-6.8zM317 427.9c.7-1.5 1.8-2 3-2.4a21 21 0 0 1 15.5.7 56 56 0 0 1 22.4 16.3q6.3 7.6 9.2 17.1l.3 1.3c-10 4.2-20.3 7.4-31.4 8.3 1.8-17.6-5.7-30.7-19-41.3M307.7 357.3a73 73 0 0 0 30.3 5q.2.9 0 1.3a72 72 0 0 1-13 28 30 30 0 0 1-18 10.8q-3.5.6-7.2.3-2 0-2.2-2.1-.2-2.6 1.2-4.8a75 75 0 0 0 6.8-15.8q2.8-9 2.5-18.4-.1-1.9-.4-4.3M400.3 445c-8.6 5.1-17.1 9.9-26.4 13.5q-1.4-3.6-2.6-7-1.4-3.5-3.2-6.6-1.7-3.2-4-6.7l3.9-4.5q7.2-7.6 17.4-10.3 3-1 4.9 1.6l1.5 2q4.6 7 7.6 15zM156.5 266.1l2-3q8.4-12.4 13.6-26.7a145 145 0 0 0 8.2-32.7 4 4 0 0 1 2-3.1l13.2-9.7 1.6-1-.6 5q-5.8 32.7-26.5 58.7-5.7 7.3-13 13zM425 432.3l-21.7 11c-3-7.6-6.3-15-11.8-21.5q.4-.6.9-1.1 6-6 14.3-8l8.7-1.8q1.6-.3 2.5 1l.8 1.2a39 39 0 0 1 6.3 18zM300 373c-5.4.6-10.2-.6-14.7-2.7q-2.8-1.4-5.2-3.2a5 5 0 0 1-2-2.7q-.8-3.4-1.2-6.9-.8-6 .7-12l.7-2.1q2 .2 4 .6 7.4 1.4 14 4.9 2.4 1.3 3.1 3.9 2.2 7.3 1.3 14.8zM366.6 358.7a58 58 0 0 1 4.2 15.3q.1 2.4-2 3.3-2.7 1.6-5.7 2.7-4.8 1.6-9.7 2.5-6.8 1.2-13.4-1.8l3-9q1.1-4.7 2-9.4zM456.6 398.3q3.6-11.5 13.8-17.2 4.2-2.6 9-1.2 3.7 1.3 1.5 4.6c-2 3-4.1 6-5.5 9.4q-4 10.3-2.6 21.4 1 5.7 2 11.3l.2 1.1-7-1.5c.1-10.9-3.4-20.2-11.4-27.9M329.3 470h-2.7q-10.4.3-20.6-1.5-1.9-.3-2.1-2.2-1.2-7.2-.4-14.4.1-1.6 1.8-2.3c7.2-3.8 13.7-1.5 20 2.4a6 6 0 0 1 3 4.6l1.2 10.8zM447 426.4l-18.6 4.8q-.6-3.6-1.5-7.3t-2.7-7q-1.7-3.4-3.8-7 .3-.4 1-1.1 7-6 16.1-5.1 2.8 0 4 2.4a57 57 0 0 1 5.6 18.8zM300.7 467.3l-5.4-1.5a102 102 0 0 1-16.6-6.8 4 4 0 0 1-2.3-2.9 31 31 0 0 1-.4-12.4c.8-2.8 1.4-3.2 4.3-3.3a32 32 0 0 1 18.4 6.4q.7.5 1.3 1.2 1.1.9.7 2.2a40 40 0 0 0 0 14.2l.2 2q0 .4-.2.9M392.4 350q1.2 2.6 2.1 5.4 1.2 4.9 2 9.7.4 2-1.2 3-2.3 1.7-4.5 3-6.1 2.7-12.8 2.8-2 0-4-.3l-4-15.7zM399.6 365.3q-.9-9-4.4-16.7l17.8-10.4.7 1q3.6 6.8 4.8 14.2.1 1.7.3 3.4.2 2.8-2 4.3c-5 3.8-10.8 4.6-17.2 4.2M275 343.2a42 42 0 0 0-.2 21.1q-.4.4-.8.4a26 26 0 0 1-17.5-3c-3.9-2.4-4.7-6.3-3.3-10.2q.4-1.4 1.9-1.8 5.8-1.9 11.2-4.8c2.6-1.3 5.5-1.5 8.7-1.7M274.2 439.9c-2.6 5-1.6 10.2-1 15.7l-2.2-1.2a97 97 0 0 1-16.3-13.4 5 5 0 0 1-1.3-2.3q-.8-5.2 1.5-10c1-2.1 1.4-2.1 3.7-1.4a29 29 0 0 1 15.6 12.6M421.6 353q-1.6-9-6-16.8l12-11.8q.4.6.5 1.2l3.7 16.4q.6 3-.5 6-.8 2.7-3.6 3.5zM249.8 435.7l-2.7-3.3q-6-7.4-10.5-15.7-1-1.6-.3-3.4c.7-1.5 1-3.1 2-4.5 1.5-2.5 3-2.7 5.5-1.2q4.8 3.1 7.1 8.1 1.7 3.7 2.8 7.5.3 1-.1 1.9c-2.4 3-3.1 6.6-3.8 10.6M181.3 197.4v-17.8q8.5-3.6 16.1-9.6.3 1 .4 1.7v11.6q0 2-1.7 3.2l-13 9.8q-.8.6-1.8 1M443.2 403q2.4-2.5 5.2-1 2.8 1.2 4.8 3.2a27 27 0 0 1 7.5 19l-.2 1.5-10 .4c-1-8-3.1-15.8-7.3-23M231.4 406q-3.1-7.4-5.2-14.5c-1-3.8-1-3.8 2-6.2l3.6-3.1 1.4-1q1.1 4.8 2.4 9.3l3.2 9.2c-3.3 1-5.4 3.2-7.4 6.2M304.9 294.8l.3-.2-.1.4zM301.5 216.2q4.5 6 6.1 13c3.3 12.5 1 24.1-5.9 35a55 55 0 0 1-26.8 21.6q-11.7 4.8-24.4 4.4a52 52 0 0 1-36.6-15q-10.5-10.4-12-25.2a44 44 0 0 1 10.6-32.8l.5-.3 1.5.9a80 80 0 0 0 34.1 13.5 65 65 0 0 0 41-6.5 54 54 0 0 0 10.5-7.4zm-37.3 61.3a42.7 42.7 0 0 0 24-7.1c4-2.6 7.2-5.7 9.2-10.1q3.9-8.5-1.8-16a23 23 0 0 0-10.8-7.7 45 45 0 0 0-39.3 4 25 25 0 0 0-8.3 8c-4.1 6.2-4 13.3.8 19q2.2 2.6 5 4.4c6.2 4 13.2 5.3 21.2 5.5M99.8 266.9c-5 4.1-7.4 9.6-8.5 16l-1.5-1.2a50 50 0 0 1-14.1-28.2q-.8-4.5.3-9l.8-2.5c9.2 7.1 16.5 15.6 23 24.9"/><path d="M428.3 197.9q5.6-.3 10.9 1.8c7.7 3.1 10.5 10 7.4 17.6a27 27 0 0 1-8 10.6 47 47 0 0 1-32.8 11.4q-5.6-.1-10.4-3a12 12 0 0 1-6-14.5c1.4-4.7 4.3-8.5 7.9-11.8a47 47 0 0 1 25.1-11.8l2.7-.3zm-19.7 37.3q15-.5 26.5-10.1 4-3.2 6-8.1c1.9-4.9.2-9-4.4-11.4a17 17 0 0 0-7.7-1.8 42 42 0 0 0-28 10.2 20 20 0 0 0-5.8 7.8c-2 4.8-.3 9.3 4.4 11.6q4.3 2 9 1.8M264.5 274.4c-7-.1-13-1-18.2-4.1q-3-1.8-5.4-4.2c-4-4.3-4.6-10-1.6-15.1q3.8-6 10.2-9.1a42 42 0 0 1 34.8-2.1q4.5 1.7 8 5.2c3.8 4.2 4.6 9.7 2 14.7q-2.6 4.6-7 7.5a39 39 0 0 1-17.6 6.7zm-1.2-3.7q2-.2 4.7-.5 9-.9 16.6-6 3.8-2.3 6-6.6a9 9 0 0 0-1.8-10.6q-3.4-3.3-8-4.6-7.5-2-15-.8c-6.3.9-12 2.7-17.1 6.5a16 16 0 0 0-5.3 6.1q-2.5 5.4 1.2 9.8 1.9 2.1 4.4 3.5c4.2 2.5 9 3 14.3 3.2"/></g><g fill="#423a33"><path d="m14 246.6.3-6.5.6-8q1.2-17.4 5.2-34.5 11.4-49.9 39.7-92.4l4.3-6.4a153 153 0 0 1-6.7-37.2Q56 35.6 60.6 10a262 262 0 0 1 47.5-109.8c13-17 28.2-31.7 46.8-42.6a40 40 0 0 1 13.4-5.5c2.8-.5 5.6-.7 8.3.2 6.4 2 9.3 7.8 6.8 14q-1 2.4-2.4 4.6-10.5 17-17.5 35.6A205 205 0 0 0 150.1-29q-.8 19.4 2.8 38.3l1.8 7.7 1.5-.6q12.2-6.6 25.2-11.7 36-14.3 75-14.8 3.4 0 6.7-1.2 18-5.9 36.6-1.4a36 36 0 0 1 16.5 8.1q1 .8 2.1.5 10-1.7 20-.5 16.5 1.9 31.5 9l9.6 5 2.2-3.6q5-9.4 8.7-19.5a214 214 0 0 0 12.9-57.2q1.4-15.8 0-31.4c-.8-8-1.9-16-4.3-23.9l-3.1-11c-1.7-6 2-14 8.5-15.5h4.3a46 46 0 0 1 21.2 9.4 70 70 0 0 1 18 21.7A132 132 0 0 1 462-80.7c3.7 19.5 4.3 39.3 2.9 59.1q-1.7 22.6-7 44.6a243 243 0 0 1-20.4 55.6q-.7 1.3-.2 2.5Q440 90 440.8 99q.3 2.8 2.3 4.9a48 48 0 0 1 8.3 53.6q-2.7 5.8-6.3 11.8a47 47 0 0 1 17.2 46l2 1.5a51 51 0 0 1 14.1 64.3q-5.7 11-15.6 18.4-2 1.4-1.2 3.5 1 3 2.3 5.9a75 75 0 0 0 18.7 23.3q2 1.5 3.9 3.5c1.2 1.3 2.2 2.8 1.8 4.7-1.4 7-5.7 12.6-13.3 14.5q-6.7 1.5-13.3-.2c-7.4-1.8-14-5.3-20.3-9.6l-2-1.4-.5 3.5c-.8 5.3-3.3 9.3-8.7 11.1q-.9.4-1.5 1.3c-5.8 9.1-7 19-4.8 29.5q.9 4.6 3.8 8.6a30 30 0 0 1 10.3-.6q.9 0 1.8-.7 2.6-1.9 5.7-2 2.5 0 5.2.3l1.3-3q4.4-11.4 15.2-17a18 18 0 0 1 15.4-1.3c6 2.3 8.2 9 4.7 14.4l-2.6 4q-2.9 4.4-4 9.5a45.9 45.9 0 0 0 3.2 28.7 9 9 0 0 0 2.8 3.9q3.4 2.4 5.4 6.1c3.3 5.8 3.7 12 2.1 18.3q-.5 1.7.3 3.2 2.6 5 3 10.6.1.4.5.7v1.4q-.4.2-.4.5v5.8q0 .3.4.5v1.4l-.7 3.4q-1.6 9-5.7 17.2-7.7 15.7-20.2 27.8c-14.5 14.1-30.8 25-50.6 30.1a186 186 0 0 1-38 5.3h-22.3l-10-.9a288 288 0 0 1-40.1-6.6 360 360 0 0 1-92.3-35.8c-26-14.5-50-31.8-70.7-53.4a164 164 0 0 1-30.5-43.1q-.8-1.5-2.3-2A164 164 0 0 1 62 385.1a183 183 0 0 1-39.3-71.5q-6.5-22.1-8.1-45.1l-.2-1.8zm143 20q7.3-5.7 13-13 20.7-26 26.5-58.7l.6-5-1.6 1-13.3 9.7a4 4 0 0 0-1.9 3 145 145 0 0 1-21.8 59.6l-2 3-1.6 1.8.3.3zM305 294.8q-1.8.6-3.4 1.6-2 1.5-3.7 3.4a68 68 0 0 0-11.4 22q-.6 2.4-1.9 4.4-2.6 4.4-5.6 8.5l-.8 1.4q7.5.7 14.4 3.2 8 2.8 14.3 8.6 1.4 1.5 3.2 2.4a52 52 0 0 0 17.8 4.6q1.4.2 2.3-1 5.6-7 13.4-11.4a74 74 0 0 1 33.8-10.6 34 34 0 0 1 19 3.6q.3.2.9.2.9-12 9.4-20.5a32 32 0 0 1 20.6-9.5c-.4-6.2-5.1-11.5-11.9-13.5l-.5 1.2q-2.5 8.5-9.5 13.8c-5 4-10.8 6.3-17 8-9.3 2.7-18.9 3.5-28.5 3.6q-4-.1-7.8 1.4-2.3.9-4.8 1.3-3 .6-5.8-.5c-4.9-1.8-5.3-8-2.4-10.9q3.1-3 7.5-2.7 5.3.2 9.6 3 2 1.4 4.3 1.2l9-.4q10.6-.7 20.8-4a32 32 0 0 0 14-8.7q3.9-4.5 4.2-10.6.3-6.9-2.6-13.2c-3-6.8-7.3-12.8-12.1-18.4a168 168 0 0 0-24.7-22.8l-1.5-1-1.2 1a27 27 0 0 1-23.1 6.7 3.5 3.5 0 0 1 .8-7l3 .2a19 19 0 0 0 14.7-5.5 23 23 0 0 0 3-28.3c-5.7-9.2-17.7-13.5-27.8-7.6l-1.2.5q-3.2.8-4.4-2-1-2.7 1.9-4.6 4.7-3 10.2-3.6.9 0 1.8-.4-1.7-4.1-2.9-7.9c-2.6-9-2.5-18.1-.7-27.2a49 49 0 0 1 9-20.5q3.1-4.4 8-7c1.9-1 3.9-.5 4.9 1.2s.6 3.7-1.4 5a26 26 0 0 0-10 12c-4 9-5.1 18.3-4.2 28a34 34 0 0 0 3 11.2q2.5 5.3 7.7 8 4.8 2.4 8.5 6.4 1 1.1 2.6 1.3a69 69 0 0 0 23.3 0 71 71 0 0 0 43.5-24.4 47 47 0 0 0 11.9-36.9q-1.7-12.4-10.1-22c-1-.9-1.7-1.1-3-.7a89 89 0 0 1-50.2 2.2q-35-7.9-58.9-34.6-12-13.5-17.7-30.7A61 61 0 0 1 310.2.7l.1-.8q-3.1-2.7-6.8-3.8a58 58 0 0 0-31.2-2.4q-2.4.3-4.8 1.4l1.3 2a66 66 0 0 1 8 18.4c4 15 3.6 30 1 45a178 178 0 0 1-15.4 47 235 235 0 0 1-57.7 75.7c-2.7 2.4-5 4.7-4.6 8.5q-4.4 30-21.3 55.1a89 89 0 0 1-37.2 33.2q-5.1 2.2-6-3.1c-1.1-8.2-3.8-16-7.3-23.4Q117.7 232 99.8 216a92 92 0 0 0-27-17.4 41 41 0 0 0-22-3.5q-10.1 1.4-14.7 10.8c-3 6.1-3 12.6-2.2 19.2 1 8.8 4 17 8 25a120 120 0 0 0 42 47c3.1 2 3.5 4 1.5 7.2l-.5.7a46 46 0 0 0-7.1 32.4 33 33 0 0 0 11.5 21.3c10.3 8.5 21.7 9.2 33.6 4.1a42 42 0 0 0 18.3-15.8l1.6-2.3a3.3 3.3 0 0 1 4.3-.6q2.1 1.5 1.6 4.2l-.8 1.6a48 48 0 0 1-29 22q-2 .4-2.4 2.3-3 11.3-1.2 22.8a90 90 0 0 0 8.5 27.2c7 14.5 16.5 27.2 27.5 38.9q19.2 20.3 42.3 36a352 352 0 0 0 109.7 50.4q27 7.3 55.1 9.3a212 212 0 0 0 53.2-3.1 101 101 0 0 0 54.5-29.8c8.8-8.7 16.1-18.5 20.8-30a47 47 0 0 0 3.8-21.2q-.4-6-3.3-11.2a12 12 0 0 0-8-6.2q-2.8-.7-5.6-.9-8-.4-15.9 1.2c-22 4.2-42 13.1-60.4 25.8l-2.8 1.9a126.9 126.9 0 0 1-89.2 13.3 134 134 0 0 1-74.5-46 157 157 0 0 1-28.7-51.2l-.9-2.2q-8.6 2.2-17.1 1.3c-7.8-1.1-14.4-4.3-19.2-10.7-1.4-1.9-1.5-3-.2-5.2a10 10 0 0 1 4-3.4c2.4-1.4 5-2.5 7-4.2q10-8.2 15.5-19.8a33 33 0 0 0 4-15.5q0-2.1-1.7-3.4-4-3.1-7.6-6.5-.8-.6-1.2-1.3c-1-1.5-.8-3.3.4-4.4 1.2-1.3 3-1.5 4.5-.5l1.2 1a64 64 0 0 0 22.5 14.3c12 4.5 24.2 5.7 36.7 2.6 14.7-3.7 25.7-11.9 30.5-27q3-9 8.2-17a33 33 0 0 1 9-9.5c4.3-2.9 8.9-4 13.8-1.9q1.5.6 2.8-.2a33 33 0 0 1 25.4-2.1c1.8.6 2.7 2.5 2.2 4.2q-.8 2.8-4 2.5-1.4-.2-2.9-.5a26 26 0 0 0-21 4.6 19.5 19.5 0 0 0-6.7 23.7c3.7 8 10.4 12.1 19 13.2q5.2.6 10.2-.6c2-.4 3.8.7 4.2 2.6.5 1.8-.5 3.6-2.4 4.3l-1.5.4a34 34 0 0 1-22.6-2.9c-15.6-8-21.1-27-9.9-41.4q.4-.4.6-1l.1-.3zM172.4 95.3l-2-1.4a123 123 0 0 1-24-32.6 160 160 0 0 1-17-65.8q-1.2-23 2.9-46a229 229 0 0 1 20-61l.7-1.3c.5-.8 1-1.4 2-1q1.4.5.8 2.3l-.5 1a222 222 0 0 0-22.1 76.7q-1.8 18-.2 36.1 1.5 17.7 6.7 34.6a130 130 0 0 0 27.7 49.4q2.7 3 5.9 6c2.7-5.1 4.3-14 3.5-19-.4-2.8-1-5.5-3.2-7.6A90 90 0 0 1 154 37.1C147.1 21.5 144 5 143-12q-1.2-23.2 3.2-46.2 7.4-39.4 28.1-73.7 1.3-2 2.2-4.3c1-2.5 0-4.3-2.7-4.6q-4.6-.6-8.9 1.3-11.1 5.5-20.9 13.3a178 178 0 0 0-36.4 39.5 246 246 0 0 0-33.2 70c-7.2 24-11 48.6-10 73.8q.6 16.2 4.4 32c3 12.3 7.8 24 15.3 34.5 6.7 9.3 15 16.8 25.8 21.2q2 1 4.2.8c5.8-.1 11-2.1 16.1-4.9l.2-.4-1.6-1.9a150 150 0 0 1-22.4-32.2 174 174 0 0 1-19-71.1q-1-19.1 1.6-38.1 4.4-30.9 17.4-59.2.4-.9.9-1.5.9-.7 1.8-.4.7.5.7 1.6-.1 1.2-.9 2.3A204 204 0 0 0 90.5 17 184 184 0 0 0 95 66.3c6 25 16.8 47.7 33.7 67.3l4.9 5.3a103 103 0 0 0 33.8-34.2l-1.8-1.6A114 114 0 0 1 149 84.8a161.6 161.6 0 0 1-30.6-88.1v-2.5q0-1.6 1.5-2 1.4 0 1.6 2v1q.3 10.2 2 20.3 4.6 27.5 18 52 9.9 18.2 25.2 32.3l2.4 2zm261.1-25 1.5-3q7.6-16.5 12.6-33.8a267 267 0 0 0 10.7-65.6q.7-20-2.1-39.7c-2-13.6-5.3-26.8-11-39.3-4-8.8-9.1-16.8-16.2-23.5a41 41 0 0 0-20.2-10.8c-4.6-.9-5.5 1.4-6 4.5q0 1.5.3 3 .5 2.2 1.3 4.6c4 12.3 5.9 25 6.5 38q.7 16.5-1.3 32.9a223 223 0 0 1-11.7 49c-2.6 7-5.2 14-9 20.3l-3.7 6 10.8 8 1.5-3.4q6-13.5 10.2-27.8 8.4-28.2 10-57.6 1.2-18.3-1.3-36.4c-1.3-9.2-3.4-18.2-7.1-26.7q-.4-.7-.4-1.3.1-1 1-1.5.6-.2 1.5.3.6.6.8 1.4l2 5c4.3 12 6.1 24.5 6.7 37q1.3 27.5-4 54.4a249 249 0 0 1-17.3 56.2l-1 2.6q10.1 8.9 18.6 19.7l2.8-4.4c5-9.3 8.7-19.2 12-29.2 3.5-11 5.4-22.2 7.3-33.5l.5-4q0-1.6 1.5-1.5c.9 0 1.2.8 1.2 1.6l-.1 2.7q-1.4 9-3 17.8-3.6 18.3-11 35.5a80 80 0 0 1-8.6 16.8l-.5 1 6.4 9.4 1.6-2.5q7.8-13.6 11.9-28.7a248 248 0 0 0 9.9-69.9q.2-15.3-2.2-30.6a78 78 0 0 0-7-23.2q-.5-1.5.8-2c.8-.5 1.5 0 2 .7l.7 1.4q2 4.5 3.5 9.3a130 130 0 0 1 5 32.8 254 254 0 0 1-8.1 76.6 143 143 0 0 1-12.3 32.5l-4 6.7zM297.8 380.6q-3.6-.4-7-.9-8-1.6-14.8-6.6-1.5-1-3.4-1-4.8.2-9.5-.4c-6.4-1-12-3.5-15.6-9.2h-.5a71 71 0 0 1-10.3 14.7q-.9 1.3-.4 2.6a83 83 0 0 0 5.2 18.4q.4.9 1.3 1.3c5.3 1.3 9 4.7 12.2 9q3 4.2 4.5 9.2.6 2.6 3.3 3.6 8.8 3.1 14.5 10.6 1.1 1.5 2.8 1.3 6.3-.1 12 2.1 6.6 2.4 12.2 6.6c5.5-2.1 10.9-1.6 16.7 0a34 34 0 0 0-7.8-7.8c-4.3-2.7-4.2-8.3-1.6-11.4q2.1-2.6 5.3-3.7 10.4-3.8 20.7.3c7.2 2.7 13.4 7 19.3 11.8l2 1.8c6.2-7.1 13-12.9 22.4-15.8l-5.5-6.9a85 85 0 0 0-23.2-19.2q-1.5-.9-3.4-1a39 39 0 0 1-10.1-2.5l-2.2-.8-1.3 2.2a43 43 0 0 1-18.7 17.8 34 34 0 0 1-17.2 3.3q-3-.1-5.7-2a9 9 0 0 1-3.9-7.5q.2-4.2 2.4-8 1.9-3.6 3.6-7.4zm162.4-157.9-.9 2q-3 7.3-8.2 13.5a62 62 0 0 1-40.4 21.6l-4.6.7c5 7.5 8.8 15.1 9.6 23.9 9.6 3.6 17.2 9 18.8 20l1.3-.2q14.6-2.9 25.7-13a45 45 0 0 0 15.4-30.7 43 43 0 0 0-12.5-33.8zm-88.4 3.7 1.3 1.2q14.4 10.8 26.3 24.4 1.1 1 2.6 1.1 7.3.1 14.2-1.6a53 53 0 0 0 33.4-23.7 39.7 39.7 0 0 0-9.3-53 82 82 0 0 1-67.1 25.5q5 13.4-1.4 26.1M202.3 343.8a48 48 0 0 1-9.6 25.4 50 50 0 0 1-20.1 18.2l1.7 1.6q3.5 2.7 7.7 3.7c5.5 1.4 11 1 16.4-.3 11-2.5 20.4-8.1 28.6-15.7 6.6-6 12-13.1 15.3-21.5l1-3.1a74 74 0 0 1-41-8.3m71.6-326.6h-.3v2.5q-.1 5.7-.7 11.3a159 159 0 0 1-6.9 30.6 273 273 0 0 1-37.6 74.6q-11.7 16.7-26.8 30.3-1.1 1-1 2.3l.5 12.3q0 .4.3.8l1.4-1c6-6 12.3-11.6 18-17.8q21.1-22.8 35.5-50.4c10-19.3 17.3-39.5 19.7-61.3q1.6-15.3-1.2-30.4-.4-1.9-.9-3.8m36.1-6.3-.5 1.7c-.5 3.7-1.2 7.5-1.3 11.3q-.2 10.7 3.4 21a84 84 0 0 0 23.1 35.4 104 104 0 0 0 81.6 29.2q5.6-.5 11.6-2.1l-1.6-.2a127 127 0 0 1-19.3-3q-33-8-59.5-29.3a117 117 0 0 1-26.3-28.7A62 62 0 0 1 310 11m145 294h-.3a69 69 0 0 1-20 6.8q-.7.3-1.2 1.1c-1.1 2.6-2.2 5.2 0 7.8q.4.8.6 1.7l2.6 8.7q.5 2 2 3.1 5.6 4 11.2 7.8a40 40 0 0 0 17.8 6.4c5.6.5 10.2-1.4 12.3-5.8 1-2.1 1.1-2.2-.8-3.7a82 82 0 0 1-12.8-12.9c-4.7-6-8.8-12.5-11-20q0-.4-.4-1M317 428c13.3 10.6 20.8 23.7 19 41.3q16.5-1.7 31.4-8.3l-.3-1.3q-3-9.5-9.2-17.1a56 56 0 0 0-22.4-16.3q-7.7-3.2-15.6-.7c-1.1.5-2.2.9-2.8 2.4m-9.3-70.6.4 4.3q.3 9.4-2.5 18.4a75 75 0 0 1-6.8 15.8q-1.4 2.2-1.2 4.8.1 2.1 2.2 2.1c2.4 0 4.9.2 7.2-.3a30 30 0 0 0 18-10.9 72 72 0 0 0 13-28q.1-.4 0-1.1a73 73 0 0 1-30.3-5.1m92.6 87.8q-.4-1.7-1-3.1-3-8-7.5-15l-1.5-2q-1.8-2.5-5-1.6a37 37 0 0 0-17.3 10.3l-3.9 4.5q2.3 3.5 4 6.7 1.8 3.1 3.2 6.6t2.6 7c9.3-3.6 17.8-8.4 26.4-13.4m24.7-12.8v-1.2a39 39 0 0 0-6.3-18l-.8-1.1q-.9-1.5-2.5-1-4.4.7-8.7 1.7-8.3 2-14.3 8-.5.5-.9 1.1a72 72 0 0 1 11.8 21.5zM300 373l.7-5.4q1-7.6-1.3-14.8-.7-2.6-3.2-3.9-6.6-3.5-13.8-5l-4.1-.5-.7 2.2q-1.5 6-.7 12 .4 3.4 1.3 6.8.4 1.6 1.9 2.7 2.4 1.8 5.2 3.2c4.5 2.1 9.3 3.3 14.6 2.7m66.6-14.3-21.5 3.6q-1 4.7-2.1 9.3l-3 9.1q6.6 3 13.4 1.8 5-1 9.7-2.5 3-1 5.7-2.7 2.1-.9 2-3.3a58 58 0 0 0-4.2-15.3m90 39.6c8 7.7 11.5 17 11.4 28l7 1.4-.1-1q-1.2-5.7-2.1-11.4-1.4-11 2.6-21.4 2.3-5 5.5-9.4 2.3-3.3-1.5-4.6c-3.2-1-6.2-.3-9 1.2a29 29 0 0 0-13.8 17.2m-127.3 71.8.2-2.7-1.2-10.8a6 6 0 0 0-3-4.6c-6.3-4-12.8-6.2-20-2.4q-1.7.7-1.8 2.3-1 7.2.4 14.4.2 2 2.1 2.2 10.2 1.8 20.6 1.6zM447 426.4q.1-.7.1-1.5a57 57 0 0 0-5.5-18.8q-1.4-2.4-4-2.4-9.3-.8-16.3 5.1l-1 1.1 4 7q1.6 3.4 2.6 7 .9 3.7 1.5 7.3zm-146.3 40.9.2-.8q0-1-.3-2a40 40 0 0 1 0-14.3q.4-1.4-.6-2.2-.6-.7-1.3-1.2a32 32 0 0 0-18.4-6.4c-3 0-3.5.5-4.3 3.3l-.2 1.1q-.7 5.7.6 11.3a4 4 0 0 0 2.3 2.9q8 4 16.6 6.8 2.6.8 5.4 1.5m91.7-117.4-22.4 8 4 15.7c1.3 0 2.6.4 4 .3q6.6-.1 12.8-2.9 2.3-1.1 4.5-2.9 1.6-1 1.2-3-.8-4.8-2-9.7-1-2.9-2-5.5m7.2 15.4c6.4.4 12.1-.4 17.2-4.2q2.2-1.5 2-4.3-.2-1.7-.3-3.4-1.2-7.4-4.8-14.1l-.7-1.1-17.8 10.4a49 49 0 0 1 4.4 16.7M275 343.2c-3.2.2-6 .4-8.7 1.7a63 63 0 0 1-11.2 4.8q-1.5.4-1.9 1.8c-1.4 3.9-.6 7.8 3.3 10.2a26 26 0 0 0 17.5 3q.4 0 .8-.4c-1.4-7-2-14 .2-21.1m-.8 96.7q-5.7-9.2-15.6-12.6c-2.3-.7-2.6-.7-3.7 1.5q-2.3 4.6-1.5 9.9.2 1.3 1.3 2.3 7.4 7.5 16.3 13.4l2.1 1.2c-.5-5.5-1.5-10.7 1.1-15.7M421.6 353l6.1-1.6q2.8-.8 3.6-3.4 1-3 .5-6l-3.7-16.5q-.1-.6-.4-1.2l-12 11.8a53 53 0 0 1 5.9 16.9m-171.8 82.6c.7-4 1.4-7.6 3.8-10.6q.4-1 .1-2-1.1-3.7-2.8-7.4a19 19 0 0 0-7-8c-2.6-1.6-4-1.4-5.6 1-1 1.5-1.3 3.1-2 4.6q-.7 1.8.3 3.4 4.6 8.3 10.5 15.7zm-68.5-238.3 1.8-1q6.4-5 13-9.9a4 4 0 0 0 1.7-3.2v-11.6q0-.7-.4-1.7-7.7 6-16.1 9.6zm262 205.7q5.8 10.9 7.2 23l10-.4.2-1.5a27 27 0 0 0-7.5-19q-2-2-4.8-3.3-2.7-1.5-5.2 1.2m-211.9 2.8c2-3 4.1-5.2 7.4-6.2q-1.7-4.7-3.2-9.2-1.3-4.4-2.4-9.3l-1.4 1-3.6 3c-3 2.5-3 2.5-2 6.3q2 7.1 5.2 14.4"/><path d="M306.3 210.5a49 49 0 0 1 7.7 44.7l2.4-.3c3.3-.1 7.4 1.2 8.6 5 .8 2.5 0 4.7-1.5 6.6-3.3 4.2-10.6 5.7-14.9 2.2l-.7-.4-1.3 1.5a66 66 0 0 1-44.8 26.9q-18.3 3-35.4-4.5a51 51 0 0 1-30-32.6 48 48 0 0 1 4-37c1.5-3 3.6-5.9 5.5-8.8l1.1-1.7-1.7-1.7-1.5-1.7c-1-1.5-.7-3.3.5-4.4 1-1.1 2.8-1.4 4.2-.6q1 .7 2 1.6a73 73 0 0 0 40.7 19c11.6 1.5 22.9.3 33.5-5 12-6.2 20-15.7 22.7-29q2-10.6-1-21a61 61 0 0 0-19-29.6q-9.2-8.2-20.6-12.9-1-.4-2-1.1a3 3 0 0 1-.9-4 3 3 0 0 1 3.4-2.2q1 0 2 .5c18 7.7 32 19.8 40.5 37.7a55 55 0 0 1 5.6 25.8q-.3 13.4-7.6 24.6zm-4.8 5.7-1.4 1.2a54 54 0 0 1-10.4 7.4 65 65 0 0 1-41 6.5 80 80 0 0 1-34.2-13.5l-1.5-.9-.5.3-.3.3a44 44 0 0 0-10.3 32.5q1.5 14.8 12 25.2a52 52 0 0 0 36.6 15q12.6.4 24.4-4.4a55 55 0 0 0 26.8-21.7q10.6-16.2 6-35a37 37 0 0 0-6.2-12.9M70.6 237.7c-5.4-3.2-10.9-5.7-17.4-4.7q-3.7.5-4.5-2.7c-.4-2 .7-3.7 3-4.3q4.4-1 8.6-.1 7.6 1.5 14 5.7A90 90 0 0 1 95 249a130 130 0 0 1 23.5 36.8q2 5 3.7 10.3 1 3.4-1.4 5.8c-4.2 4.2-6 9.4-7 15a43 43 0 0 0 2.7 23.5c.3 1.7-.6 3.3-2.2 3.8-1.6.7-3.4 0-4.3-1.5q-.5-.8-.8-1.8a50 50 0 0 1-3-19c0-2-.4-3.1-2-4.4A37 37 0 0 1 92 296a9 9 0 0 0-3.4-5.7 57 57 0 0 1-19.7-33.7c-1.2-6-1-12 1.4-17.9zm29.2 29.2a111 111 0 0 0-23-24.9l-.8 2.5q-1 4.5-.3 9c1.5 11 6.5 20.2 14.1 28.2l1.5 1.2c1-6.4 3.5-11.9 8.5-16"/><path d="M267.5 202.8a46 46 0 0 1-25.7-7.4 21 21 0 0 1-7.7-9 13 13 0 0 1 2.4-14.6q3.9-4.4 9.5-6a42 42 0 0 1 37.7 6.7q4.3 3 6.4 8.2a13 13 0 0 1-2.8 14.5q-4.5 4.7-11 6.1c-3.3.8-6.8 1.2-8.8 1.5M423 145.9a29 29 0 0 1-7 17.7 30 30 0 0 1-19 11.7 16.8 16.8 0 0 1-20.4-18 32.5 32.5 0 0 1 24.8-28.4q6.7-1.6 12.8 1.4c6.2 3.4 8.6 8.9 8.8 15.6M408.5 242.5q-5.7.1-11.2-1.8-3.7-1.3-6.6-3.9-6.8-6.3-4.4-15.3c1.4-5.5 4.6-10 8.8-13.7a50 50 0 0 1 35-13.1q6.2 0 12 3c7.8 4 10.7 11.6 7.7 19.9a30 30 0 0 1-9.3 12.7 51 51 0 0 1-32 12.2m19.8-44.6H425l-2.7.3a47 47 0 0 0-25.1 11.8q-5.6 4.8-7.9 11.8a12 12 0 0 0 6 14.6q4.8 2.7 10.4 2.9 18.6.6 32.7-11.4 5.4-4.2 8-10.6c3.2-7.6.4-14.5-7.3-17.6q-5.3-2.1-11-1.8M264.2 277.5c-8-.2-15-1.4-21.1-5.5a23 23 0 0 1-5.1-4.5c-4.7-5.6-5-12.7-.8-19q3.2-5 8.3-7.9a45 45 0 0 1 39.3-4q6.4 2.2 10.8 7.7 5.6 7.5 1.8 16-3.2 6.4-9.2 10.1A43 43 0 0 1 270 277q-3.5.4-5.8.5m.3-3.1 5.2-.5q9.7-1.2 17.7-6.7 4.3-3 6.8-7.5c2.7-5 2-10.5-2-14.7a21 21 0 0 0-7.9-5.2 42 42 0 0 0-34.8 2c-4.2 2.2-7.8 5-10.2 9.2-3 5.1-2.5 10.8 1.6 15.1q2.4 2.4 5.4 4.2c5.3 3 11.2 4 18.2 4"/><path d="M408.6 235.2q-4.7.1-9-1.8c-4.7-2.3-6.4-6.8-4.4-11.6q2-4.6 5.8-7.8a42 42 0 0 1 28-10.2q4 0 7.7 1.8c4.6 2.3 6.3 6.5 4.5 11.4a20 20 0 0 1-6.1 8 43 43 0 0 1-26.5 10.2M263.3 270.7c-5.3-.2-10-.7-14.3-3.2q-2.5-1.3-4.4-3.5-3.7-4.4-1.2-9.8a16 16 0 0 1 5.3-6.1c5-3.8 10.8-5.6 17-6.5q7.6-1.2 15.1.8 4.6 1.3 8 4.6a9 9 0 0 1 1.8 10.6q-2.2 4.3-6 6.7-7.6 5-16.6 6z"/></g></g></svg>