<svg xmlns="http://www.w3.org/2000/svg" xml:space="preserve" width="900" height="385"><path d="M34.7 144.3c21.2 0 38-10.8 53-34l1.2-1.9 2.2.3q5.7.8 11.1.8 11.3 0 21.5-3.4l5.2-1.8-.6 5.5q-.6 4.9-.6 10.4c0 11.2 5.3 24.2 20.3 24.2 14.1 0 24.5-7.2 29.4-11.5l4-3.4 1.7 5c2.3 6.4 8 7.2 10.3 7.2 2.5 0 5-.6 6.5-1 .6-9 3-22 7-31.7l4.2-10h-.4l3-5.5c3-5.6 13.9-23.8 27.8-23.8 6.7 0 9.1 3.9 9.1 7.5 0 12-17.4 20.9-33.7 21.5l-5.2.2 2 10.9c1.4 8 8 34.3 33.6 34.3 11.1 0 22-3.6 30.4-10l3-2.1 2 3c4.8 6.8 13.7 10.4 25.8 10.4 20.9 0 42-11.5 42-33.6 0-14.1-9.4-18.1-19.3-22.4-8.2-3.5-16.7-7-16.7-17 0-7.5 5.2-12 13.6-12 10 0 16.9 6.1 16.9 15q0 3.8-.6 6.3c6.8 0 15-2.4 15-13.5 0-12.4-11.9-20.4-30.1-20.4-21.2 0-35.5 10.4-35.5 25.8 0 16 9.6 21.3 18.9 26.5 7.2 4 14.7 8.2 14.7 17.3 0 8-7.2 14.1-16.7 14.1a20 20 0 0 1-19.9-13.9l-.3-.9.2-.9a17 17 0 0 0-.2-8.6 7 7 0 0 0-2.5-3.7c-5.8 9.9-17.2 23.6-35.9 23.6-10.5 0-14.2-7.2-16.3-13.4l-1.1-3.3 3.3-1.1c12.7-4.4 34-15 34-36.7 0-9.5-5-16.2-14.3-19l-5.3-1.6 3.7-4.1c.4-.5 10.3-11.7 10.3-28 0-11-7-17.1-19.5-17.1-34.8 0-55.4 64.1-62.2 102l-.1.6-.3.6c-5 8.6-14.5 18.7-24.7 18.7-8.8 0-10-6.3-10-12.5 0-16 8.5-35 16.7-53.2 7-15.7 13.5-30.4 13.5-40.7 0-8.5-1.6-16.1-21.4-16.1q-28.6.1-50.5 32C99.2 47 92.2 60.8 85.4 74.1c-14.2 28-26.6 52.2-48.6 52.2-9.1 0-14.9-7.2-14.9-18.7 0-22.4 15.5-36.3 29.7-36.3A34 34 0 0 1 66 73.9l.1-1.5c0-8.8-6-13.6-16.7-13.6C20.3 58.8 0 85.6 0 109.6c0 22 12.6 34.7 34.7 34.7M214 64.9a191 191 0 0 1 10.3-23.4c8.6-16.5 13.1-18.8 16.4-18.8s5.5 3.3 5.5 6.4c0 16.7-18.6 33.3-26.7 39.7l-9.1 7.3zM100.6 88l5-10.5a353 353 0 0 1 20.8-40q11.4-17.8 24.8-17.7c4.5 0 6.5 2.9 6.5 5.6 0 7-4.7 17.5-10.7 30.8-3.8 8.5-8.1 18-11.7 28l-.5 1.3-1.4.6c-7 3-17.7 6.7-29.5 7h-5.7z"/><path fill="#111" d="M385.2 144c19.3 0 36.2-8.4 45.5-16.4l3.6-3.1 1.9 4.4q6.5 15 25.2 15c32 0 56.4-21 56.4-31.5q0-7.1-4-9.3c-7.6 8.6-24.7 24.4-47.8 24.4q-11.3 0-12.7-12.7l-.3-2.7 2.5-1c19.8-7.4 58.3-42.9 58.3-81.4Q514 8 493.2 8.2c-33.4 0-60.6 60-60.7 99v1.6l-1.2 1A70 70 0 0 1 388 128c-6.5 0-11.2-2.9-13-8l-1.1-3.6 3.7-1c23.1-5.5 47.9-20.6 47.9-46.3q0-19.2-22.9-19.2c-28.4 0-48.2 31.8-48.2 60.4 0 15.4 5.3 33.9 30.8 33.9m70.3-56.3c2-9.8 15.8-59.4 32.3-59.4 4 0 6.7 3.5 6.7 8.5 0 19.1-19.4 47.5-34 54.8l-6.5 3.2zm-81 10.2c2.8-13 11.7-32.2 25.1-32.2 4.4 0 7.3 3.1 7.3 7.7 0 11.6-11.1 23-27.8 28.6l-5.8 1.9zM616 147.2c36.5 0 64-22.3 64-52 0-20.7-14.2-29.2-27.9-37.4-10.9-6.5-21.2-12.6-21.2-24.5 0-8 5.5-16.4 21-16.4 13.3 0 22.7 8.3 22.7 20.1q-.1 5.5-1 8.6h1.4q18 .1 17.9-19c0-16.4-15-26.6-39-26.6-26.3 0-45.3 15.2-45.3 36 0 16.5 11.4 23.6 23.4 31.2 11.7 7.3 23.8 14.9 23.8 31.2 0 17.9-15.8 31.3-36.7 31.3-16.9 0-27.7-8.7-27.7-22.1 0-12.7 8.3-21 21.3-21 6.5 0 10.8 1.5 13.5 3q.3-1 .3-2.6 0-15.3-18-15.4a37 37 0 0 0-39.7 38c0 24.6 16.4 37.6 47.3 37.6M710 144c17.9 0 24.8-9.7 24.8-9.8l4.7-6.9 1.7 8.2c0 .3 2.3 9 17.1 9 10.2 0 20.5-3.9 28.8-10.9l3.5-3 2 4.2c2.9 6.2 10 6.9 13 6.9q3.2-.1 5.3-1c1.8-24.9 19.3-69.8 38.6-69.8 1.8 0 6.1.7 6.1 6.7 0 4-2.6 10-7 19.5-4.6 10.3-10.4 23-10.4 31q0 16.3 19 16.3c22.8 0 42.7-19.4 42.7-31.2 0-6.3-1.9-8.6-3.6-9.5-5.8 10.7-16 21.4-26.2 21.4-5.2 0-8.4-3.1-8.4-8.1s3.2-11.1 7.2-19c4.8-9.6 10.8-21.5 10.8-32 0-10.7-5.9-16.8-16.2-16.8-14.8 0-25.5 15-29.3 21.4l-.4.6-8.6 12.9 2.2-15.4q1-7.7-3-12.5a11 11 0 0 0-9.6-3.8h-.3c-2.5 0-5.2.6-7.1 1.2-.4 17.1-5.2 31.5-9.4 44.3l-1.7 5.4-.1.2-.1.3c-5 10.3-15.4 21.3-26 21.3q-12.2 0-12.3-12.7c0-5 1.4-9.4 5.6-22.8l4.3-14.2q-2.2-.7-6.4-.7-11.6 0-15.2 12.3c-3.8 14.3-11 41-29.5 41-5.5 0-11.4-3.6-11.4-13.6 0-28 21-51.7 45.7-51.7 14.4 0 23.4 2.6 28 4.5l.3-2c0-4.2 0-17-27.5-17-37 0-67 29.7-67 66.2 0 9 2.5 29.7 25.3 29.7M113.4 356.4l-.5-9.7q-4-60-.6-121.5a93 93 0 0 1 30.3 10l6.3 2.8q1.5.9 3.1.9 2.6 0 4.3-1.7 2-1.8 2-4.3v-45a6 6 0 0 0-1.8-4.3L138.7 168H6.3a6 6 0 0 0-4.4 1.8 6 6 0 0 0-1.9 4.5v44.8q0 2.3 1.5 3.9l.1.1.3.3.9.7 14.5 12.4.5.6 1.1.8h.1q1.4.9 3.2.9t2.9-.6a303 303 0 0 1 21.5-9.5q2 52.6-1.4 104.2l-.8 15q-.4 3.9-4.3 10.8a6 6 0 0 0-.3 6.3 6 6 0 0 0 1.4 1.7L56.6 380l.3.2.7.7q1.5 1 3.5 1H113q3.4 0 5.3-3.2t.1-6a38 38 0 0 1-4.9-16.3"/><path d="M895 242a82 82 0 0 0-35.4-50.6 80 80 0 0 0-36.4-22.9 94 94 0 0 0-49.6 0q-11.9 3.3-23.2 11.2a78 78 0 0 0-30.2 41.3 82 82 0 0 0-27.2-29.6 80 80 0 0 0-36.4-22.9 94 94 0 0 0-49.6 0 78.3 78.3 0 0 0-49.6 43V188a6 6 0 0 0-1.9-4.4l-15.2-12.8-.7-.9a6 6 0 0 0-4.4-1.8H275.7a6 6 0 0 0-4.5 1.8 6 6 0 0 0-1.8 4.5v44.8q0 2.7 1.8 4.3l1 .8 14.6 12.5.3.4 1 .7q1.5 1 3.5 1 1.6 0 2.8-.6a296 296 0 0 1 21.5-9.5q2.1 52.5-1.4 104.2l-.8 15a28 28 0 0 1-4.3 10.8 6 6 0 0 0-.3 6.3l1.2 1.5L326 380l.2.2.7.7q1.5 1 3.5 1h51.8q3.4 0 5.3-3.2t.1-6a38 38 0 0 1-4.8-16.3l-.6-9.7q-4-60-.6-121.5a93 93 0 0 1 30.3 10l5.7 2.6q1.6 1 3.7 1a7 7 0 0 0 2.4-.3l.4-.2a310 310 0 0 1 21.5-9.5q2.1 52.5-1.3 104.2l-.9 14.9a28 28 0 0 1-4.3 10.9 6 6 0 0 0-.3 6.3q.6.9 1.3 1.5l16.4 14.2a6 6 0 0 0 3.7 1h51.7q3.4 0 5.3-3.1 1.8-3.2.1-6a38 38 0 0 1-4.8-16.3l-.6-9.7q-4-60-.6-121.5a93 93 0 0 1 30.4 10l6.2 2.8 1 .4q-2.7 13.7-2.7 29.7 0 22 5 39.8a96 96 0 0 0 13.2 29.3 78 78 0 0 0 21.9 21 77 77 0 0 0 36.6 23.2 92 92 0 0 0 49.6 0 74 74 0 0 0 23.1-11.1 82 82 0 0 0 30.4-41.4 78.3 78.3 0 0 0 26.9 29.3 77 77 0 0 0 36.6 23.2 92 92 0 0 0 49.6 0q12-3.4 23.2-11.1a82 82 0 0 0 32.7-48.8q5-17.7 5-39.7t-5-39.8m-227.6 52.3a64 64 0 0 1-6 18 36 36 0 0 1-8.8 10.9 31 31 0 0 1-20.9 7.3q-6.8 0-12.7-2.5a55 55 0 0 1-6-15 124 124 0 0 1-3.4-31.2q0-18.3 3.4-31.2t9.3-19.3q6-6.4 12-9.1 6.1-2.8 13.3-2.8a34 34 0 0 1 12.4 2.3 61 61 0 0 1 8.2 24q1.5 9.8 1.5 22.4 0 15-2.3 26.2m166.7 0a64 64 0 0 1-6 18 36 36 0 0 1-8.9 10.9 31 31 0 0 1-20.9 7.3q-6.7 0-12.7-2.5a55 55 0 0 1-6-15q-3.4-12.9-3.4-31.2t3.4-31.2q3.4-12.9 9.3-19.3t12-9.1 13.3-2.8a34 34 0 0 1 12.4 2.3 61 61 0 0 1 8.2 24q1.6 9.8 1.6 22.4 0 15-2.3 26.2"/><path fill="#111" d="m291 355.8-2.9-9.7a1095 1095 0 0 1-30-130.1l-1.7-9.7a32 32 0 0 1 1.1-16q.9-2.9-.8-5.5l-.5-.5-.3-.3-1.3-1.1-16.9-14.8h-59.8q-3.5 0-5.7 3.1-2.1 3-.6 6 2 5 .8 10.9l-2.2 14.3q-11 65.2-30 130l-4.6 15a33 33 0 0 1-6.9 11q-3 3.3-1.1 6.7.4.8 1 1.5l16.3 14 .5.5h.1q1.2.7 2.8.7h51.8q3.6 0 5.7-3.1a6 6 0 0 0 1.1-5.5 32 32 0 0 1-1.1-16l1.7-9.7q.6-3 1.1-7.7l13.1.1 1.4 8.3q1 6-1 10.8-1 3.2 1 6 .3.7.8 1.1l.2.3 16 13.6v.1l.6.5h.1q1.6 1.2 3.9 1.2h50.9q3.6 0 5.1-3.1t-1.1-6.6q-6-7.5-8.6-16.3"/><g fill="#fff"><path d="m6.9 218.2 5.9-2.8a100 100 0 0 1 33-10.7 7 7 0 0 1 6.8 6.4c2.3 41.1 2 82.3-.6 122.4l-.8 14.8q-.4 5.4-4.8 13H96q-4.5-8.5-5.2-18.1l-.5-9.8c-2.7-40-3-81.2-.6-122.3a7 7 0 0 1 7.7-6.3 100 100 0 0 1 32.4 10.6l5.9 2.7v-43.2H6.9zM276.2 174.9v43.3l5.9-2.8a100 100 0 0 1 33-10.7 7 7 0 0 1 6.8 6.4c2.3 41.1 2.1 82.3-.6 122.4l-.8 14.8a32 32 0 0 1-4.7 13h49.4q-4.5-8.5-5.1-18.1l-.6-9.8c-2.7-40-2.9-81.2-.6-122.3a7 7 0 0 1 7.7-6.3 100 100 0 0 1 32.4 10.6l6.5 3h.1l6.2-3a100 100 0 0 1 33-10.7 7 7 0 0 1 6.8 6.4c2.3 41 2.1 82.3-.5 122.4l-.9 14.8q-.4 5.4-4.7 13H495q-4.6-8.6-5.2-18.1l-.6-9.8c-2.7-40-2.9-81.2-.6-122.3a7 7 0 0 1 7.8-6.3q16 2.2 32.4 10.6 4.4 2.2 5.9 2.7v-43.2H276.2M872.5 230.2a75.5 75.5 0 0 0-30.1-45 68 68 0 0 0-21-10.1 87 87 0 0 0-46 0q-10.7 3-21 10.1a72 72 0 0 0-17.8 17.8q-7.5 10.6-12.2 27.2-1.5 5.3-2.5 11.3a6.8 6.8 0 0 1-13.5 0q-1-6-2.5-11.3a75.6 75.6 0 0 0-30.1-45 68 68 0 0 0-21-10.1 87 87 0 0 0-46 0q-10.7 3-21 10.1a72 72 0 0 0-17.9 17.8q-7.5 10.6-12.1 27.2a140 140 0 0 0-4.8 38q0 21 4.8 37.8 4.6 16.6 12.1 27.3a72 72 0 0 0 38.9 28 86 86 0 0 0 46-.1q10.8-3 21-10.1a75 75 0 0 0 30.1-45q1.5-5.3 2.5-11.3a6.8 6.8 0 0 1 13.5 0q1 6 2.5 11.2 4.7 16.6 12.2 27.3a72 72 0 0 0 38.8 28 86 86 0 0 0 46-.1q10.9-3 21-10.1a76 76 0 0 0 30.1-45q4.8-16.9 4.8-38 0-21-4.8-37.9m-198.4 65.4a70 70 0 0 1-6.7 20 43 43 0 0 1-10.6 12.9 38 38 0 0 1-25.1 8.8 39 39 0 0 1-30.3-14 51 51 0 0 1-10.9-22.1q-3.6-13.9-3.6-33c0-19.2 1.2-23.9 3.6-33q3.9-14.5 10.9-22.1 6.8-7.5 14.2-10.8a39 39 0 0 1 27-2q4.8 1.5 10 4.3 5.7 3 10.1 9 4.1 5.3 7.3 12.8 3.1 7.5 4.9 18.2 1.6 10.5 1.6 23.5 0 15.6-2.4 27.5m166.6 0a70 70 0 0 1-6.7 20 43 43 0 0 1-10.5 12.9 38 38 0 0 1-25.2 8.8 39 39 0 0 1-30.3-14 51 51 0 0 1-10.9-22.1q-3.6-13.9-3.6-33 0-19.3 3.6-33 3.9-14.5 10.9-22.1 6.8-7.5 14.3-10.8a39 39 0 0 1 26.8-2q5 1.5 10 4.2 5.8 3.2 10.2 9 4.2 5.4 7.3 13 3.2 7.4 5 18.1 1.5 10.5 1.6 23.5 0 15.6-2.5 27.5"/></g><path fill="#fff" d="M265.7 334.4c-12.8-43.3-23-87.4-30.2-131l-1.7-9.6q-1.6-10 1.2-18.9h-57q2.5 6.6 1.2 14.4l-2.3 14.2c-7.3 43.5-17.4 87.5-30.2 130.9l-4.6 14.8q-1.4 5.2-7 12.2h49l.2-.3a39 39 0 0 1-1.1-18.6l1.7-9.8q.5-3 1-7.4c.5-3.4 3.4-6 6.8-6h.1l26.9.4c3.4 0 6.2 2.5 6.7 5.8l1 7.3 2.4 14.2q1.4 7.7-1.1 14.2v.2h48.6q-6-7.9-8.8-17.3zM220.8 290a7 7 0 0 1-5.2 2.4h-18.9c-3.7 0-6.8-3-6.8-6.8 0-.7 0-1.1 3.7-25.3a475 475 0 0 1 6-34c.7-3.1 3.4-5.3 6.6-5.3h.1c3.2 0 6 2.3 6.6 5.5q1.4 7.5 3.2 18l6.2 40q.5 3.1-1.5 5.5"/></svg>